<svg version="1.1" xmlns="http://www.w3.org/2000/svg" xmlns:xlink="http://www.w3.org/1999/xlink" width="2490" height="2500" viewBox="0,0,254.96875,256"><g fill="none" fill-rule="nonzero" stroke="none" stroke-width="1" stroke-linecap="butt" stroke-linejoin="miter" stroke-miterlimit="10" stroke-dasharray="" stroke-dashoffset="0" font-family="none" font-weight="none" font-size="none" text-anchor="none" style="mix-blend-mode: normal"><g transform="translate(-0.00362,0) scale(0.996,1)"><g><path d="M0,18.338c0,-10.122 8.474,-18.338 18.92,-18.338h218.16c10.45,0 18.92,8.216 18.92,18.338v219.327c0,10.125 -8.47,18.335 -18.92,18.335h-218.16c-10.445,0 -18.92,-8.209 -18.92,-18.332v-219.333z" fill="#ffdb7e"></path><path d="M77.796,214.238v-115.252h-38.308v115.252h38.312zM58.65,83.253c13.356,0 21.671,-8.85 21.671,-19.91c-0.25,-11.312 -8.315,-19.915 -21.417,-19.915c-13.111,0 -21.674,8.603 -21.674,19.914c0,11.06 8.312,19.91 21.169,19.91h0.248zM99,214.238h38.305v-64.355c0,-3.44 0.25,-6.889 1.262,-9.346c2.768,-6.885 9.071,-14.012 19.656,-14.012c13.858,0 19.405,10.568 19.405,26.063v61.65h38.304v-66.082c0,-35.399 -18.896,-51.872 -44.099,-51.872c-20.663,0 -29.738,11.549 -34.78,19.415h0.255v-16.709h-38.306c0.5,10.812 -0.003,115.252 -0.003,115.252z" fill="#191919"></path></g></g></g></svg>