<svg version="1.1" xmlns="http://www.w3.org/2000/svg" xmlns:xlink="http://www.w3.org/1999/xlink" width="100%" height="123.10559619291033px" viewBox="0,0,207.9375,256"><g fill="#ffdb7e" fill-rule="nonzero" stroke="none" stroke-width="1" stroke-linecap="butt" stroke-linejoin="miter" stroke-miterlimit="10" stroke-dasharray="" stroke-dashoffset="0" font-family="none" font-weight="none" font-size="none" text-anchor="none" style="mix-blend-mode: normal"><g transform="translate(-368.19089,-239.14429) scale(1.71694,2.07952)"><g data-paper-data="{&quot;isIcon&quot;:&quot;true&quot;,&quot;iconType&quot;:&quot;icon&quot;,&quot;rawIconId&quot;:&quot;36896dc1-4f37-4e04-85fb-7e88ca164f32&quot;,&quot;selectedEffects&quot;:{&quot;container&quot;:&quot;&quot;,&quot;transformation&quot;:&quot;&quot;,&quot;pattern&quot;:&quot;&quot;},&quot;isDetailed&quot;:true,&quot;iconStyle&quot;:&quot;standalone&quot;,&quot;bounds&quot;:{&quot;x&quot;:214.44137509905698,&quot;y&quot;:115,&quot;width&quot;:121.11724980188609,&quot;height&quot;:123.10559619291033},&quot;fillRule&quot;:&quot;nonzero&quot;,&quot;suitableAsStandaloneIcon&quot;:true}"><path d="M335.55862,238.1056h-22.99585c-6.05154,0 -11.1089,-1.67138 -15.17208,-5.01413c-4.06317,-3.34275 -7.0169,-7.46357 -8.86118,-12.36243l-10.97922,-30.4306c-1.49848,-4.7836 -3.2563,-8.40011 -5.27349,-10.84954c-2.01718,-2.44943 -4.92768,-3.7606 -8.73151,-3.9335h-2.50706c0,-1.09504 0.47548,-2.10363 1.42644,-3.02577c0.95095,-0.92214 2.29094,-1.38321 4.01995,-1.38321h2.07482c3.97672,0 7.46357,-1.41203 10.46052,-4.23608c2.99695,-2.82405 5.31671,-6.22444 6.95927,-10.20116c1.64256,-3.97672 2.46384,-7.75173 2.46384,-11.32503c0,-3.63093 -0.82128,-7.44916 -2.46384,-11.4547c-1.64256,-4.00554 -3.94791,-7.43475 -6.91605,-10.28762c-2.96814,-2.85287 -6.46938,-4.2793 -10.50375,-4.2793h-14.69659v40.71822c-5.3023,0 -10.14353,-0.92214 -14.5237,-2.76642c-4.38016,-1.84428 -7.88141,-4.6107 -10.50375,-8.29926c-2.62233,-3.68856 -3.9335,-8.32807 -3.9335,-13.91854c0,-4.2649 -0.31698,-7.60765 -0.95095,-10.02826c-1.32558,-4.9565 -4.49543,-7.43475 -9.50956,-7.43475v-2.59352h54.11806c13.94736,0 25.50291,2.36298 34.66667,7.08894c10.02826,5.18704 15.0424,12.93877 15.0424,23.2552c0,16.13744 -9.42311,25.70464 -28.26934,28.70159c3.74619,0.3458 7.29066,1.81546 10.63342,4.40898c2.13245,1.61374 3.67415,3.24189 4.6251,4.88446c0.95095,1.64256 1.80105,3.64533 2.55029,6.00832l9.76892,28.18289c0.80687,2.36298 2.14686,4.91327 4.01995,7.65088c1.87309,2.7376 4.01995,5.1294 6.44057,7.1754c2.42061,2.046 4.87005,3.069 7.3483,3.069zM239.4256,188.31007c-3.45802,0 -6.41175,-1.22472 -8.86118,-3.67415c-2.44943,-2.44943 -3.67415,-5.40316 -3.67415,-8.86118c0,-3.45802 1.22472,-6.41175 3.67415,-8.86118c2.44943,-2.44943 5.40316,-3.67415 8.86118,-3.67415c3.45802,0 6.39734,1.22472 8.81796,3.67415c2.42061,2.44943 3.63093,5.40316 3.63093,8.86118c0,3.45802 -1.21031,6.41175 -3.63093,8.86118c-2.42061,2.44943 -5.35994,3.67415 -8.81796,3.67415zM264.40981,238.1056h-49.96843v-2.67997c4.72596,0 7.80937,-3.11222 9.25021,-9.33666c0.8645,-3.68856 1.29676,-8.32807 1.29676,-13.91854l-0.08645,-20.57524c5.3023,0 10.15794,1.00859 14.56692,3.02577c4.40898,2.01718 7.91022,4.97091 10.50375,8.86118c2.59352,3.89027 3.89027,8.63065 3.89027,14.22112c0.11527,4.66833 0.46107,8.09754 1.0374,10.28762c1.32558,4.9565 4.49543,7.43475 9.50956,7.43475z" data-paper-data="{&quot;isPathIcon&quot;:true}"></path></g></g></g></svg>