<svg version="1.0" xmlns="http://www.w3.org/2000/svg"
 width="381.000000pt" height="126.000000pt" viewBox="0 0 381.000000 126.000000"
 preserveAspectRatio="xMidYMid meet">

<g transform="translate(0.000000,126.000000) scale(0.100000,-0.100000)"
fill="#191919" stroke="none">
<path d="M22 1198 c3 -7 14 -14 25 -16 45 -7 65 -45 74 -142 5 -50 16 -106 25
-126 34 -71 140 -134 226 -134 l28 0 2 193 3 192 85 -1 c98 -1 133 -15 174
-68 41 -54 58 -105 59 -171 1 -130 -88 -245 -191 -245 -39 0 -62 -14 -62 -37
0 -8 12 -13 29 -13 36 0 76 -32 100 -78 10 -21 44 -111 76 -201 70 -198 100
-246 174 -283 52 -27 62 -28 193 -28 110 0 138 3 138 14 0 7 -12 16 -28 19
-36 8 -98 70 -126 126 -13 25 -47 115 -76 200 -56 162 -84 208 -141 231 -35
15 -31 20 35 45 61 22 123 77 147 130 25 54 25 166 0 220 -36 81 -133 140
-274 169 -100 21 -701 24 -695 4z"/>
<path d="M3000 1107 c-69 -46 -75 -68 -78 -298 -4 -238 2 -276 57 -330 87 -87
244 -49 279 68 15 51 16 413 1 468 -21 77 -76 115 -167 115 -45 0 -67 -5 -92
-23z m159 -23 c66 -26 71 -48 71 -304 0 -243 -5 -266 -60 -295 -37 -19 -100
-19 -146 0 -60 25 -65 53 -62 315 3 211 4 230 23 250 43 48 107 61 174 34z"/>
<path d="M3047 1023 c-20 -23 -20 -22 -18 -260 1 -224 4 -233 66 -233 40 0 62
19 70 63 4 18 5 116 3 218 -3 167 -5 189 -22 208 -24 26 -77 28 -99 4z m78
-237 c0 -184 -2 -210 -17 -219 -12 -8 -21 -7 -32 2 -14 11 -16 43 -16 206 0
107 3 201 6 210 4 10 16 15 33 13 l26 -3 0 -209z"/>
<path d="M3407 1124 c-4 -4 -7 -160 -7 -346 l0 -339 58 3 57 3 5 174 5 174 34
-129 c19 -71 40 -150 48 -176 l14 -48 63 0 c46 0 65 4 69 14 11 27 6 639 -4
658 -8 16 -20 18 -62 16 l-52 -3 -5 -130 -5 -130 -35 130 -35 130 -70 3 c-39
1 -74 0 -78 -4z m123 -39 c0 -11 99 -366 105 -375 19 -30 25 18 25 191 l0 189
30 0 30 0 0 -305 0 -305 -38 0 -38 0 -58 218 c-32 119 -63 225 -68 235 -22 42
-28 -5 -28 -224 l0 -229 -30 0 -30 0 0 305 0 305 50 0 c28 0 50 -2 50 -5z"/>
<path d="M1400 786 l0 -326 55 0 55 0 0 130 0 130 28 0 c57 0 65 -16 70 -143
l4 -115 37 -4 c68 -6 66 -10 63 120 -4 119 -19 178 -49 189 -11 4 -7 13 14 35
24 25 28 38 31 105 5 89 -8 140 -44 174 -24 22 -35 24 -145 28 l-119 3 0 -326z
m188 220 c16 -10 16 -158 0 -174 -7 -7 -27 -12 -45 -12 l-33 0 0 100 0 100 33
-3 c19 -2 39 -7 45 -11z"/>
<path d="M1946 1083 c-10 -46 -96 -591 -96 -607 0 -17 75 -27 90 -12 6 6 10
21 10 35 0 68 27 87 100 72 33 -6 35 -10 42 -55 4 -26 9 -50 11 -53 3 -2 27
-3 54 -1 l49 3 -51 320 -50 320 -77 3 -76 3 -6 -28z m81 -411 c-22 -2 -42 -1
-45 2 -6 6 25 240 35 266 3 8 16 -48 27 -125 l22 -140 -39 -3z"/>
<path d="M2350 785 l0 -325 45 0 45 0 1 203 1 202 24 -135 c13 -74 28 -166 35
-203 l11 -68 51 3 52 3 30 205 30 205 3 -207 2 -208 50 0 50 0 0 325 0 325
-75 0 c-44 0 -75 -4 -75 -10 0 -6 -13 -100 -30 -210 -16 -110 -31 -206 -31
-212 -1 -7 -18 86 -38 207 l-38 220 -71 3 -72 3 0 -326z"/>
<path d="M182 719 c-39 -38 -49 -83 -28 -132 16 -39 67 -77 104 -77 71 0 122
54 122 131 0 33 -6 47 -34 75 -29 29 -41 34 -83 34 -41 0 -54 -5 -81 -31z"/>
<path d="M118 311 c-3 -153 -5 -172 -24 -198 -11 -15 -33 -34 -47 -41 -15 -7
-27 -17 -27 -23 0 -5 96 -9 240 -9 190 0 240 3 240 13 0 7 -15 18 -34 25 -42
16 -54 42 -65 155 -12 119 -42 169 -130 214 -42 22 -77 33 -106 33 l-43 0 -4
-169z"/>
<path d="M1400 230 c0 -91 3 -110 15 -110 11 0 15 12 15 46 0 38 3 45 18 42
12 -2 18 -15 20 -46 2 -32 7 -42 20 -42 15 0 17 7 14 43 -2 23 -8 47 -14 54
-6 7 -5 14 2 18 16 10 12 72 -6 89 -8 9 -31 16 -50 16 l-34 0 0 -110z m70 45
c0 -28 -4 -35 -20 -35 -16 0 -20 7 -20 35 0 28 4 35 20 35 16 0 20 -7 20 -35z"/>
<path d="M1780 230 c0 -91 3 -110 15 -110 12 0 15 19 15 110 0 91 -3 110 -15
110 -12 0 -15 -19 -15 -110z"/>
<path d="M2090 230 l0 -110 38 0 c21 0 43 5 50 12 15 15 16 80 1 95 -8 8 -8
13 0 17 16 11 13 62 -5 80 -8 9 -31 16 -50 16 l-34 0 0 -110z m70 51 c0 -17
-6 -31 -16 -35 -24 -9 -24 -9 -24 29 0 28 4 35 20 35 15 0 20 -7 20 -29z m6
-86 c7 -27 -10 -55 -32 -55 -10 0 -14 13 -14 40 0 33 3 40 20 40 13 0 22 -9
26 -25z"/>
<path d="M2517 334 c-4 -4 -7 -54 -7 -111 l0 -103 50 0 c28 0 50 5 50 10 0 6
-16 10 -35 10 -34 0 -35 1 -35 40 0 36 3 40 25 40 14 0 25 5 25 10 0 6 -11 10
-25 10 -22 0 -25 4 -25 34 0 32 3 35 33 38 17 2 32 8 32 13 0 12 -77 19 -88 9z"/>
<path d="M2880 230 c0 -67 4 -110 10 -110 6 0 10 43 10 110 0 67 -4 110 -10
110 -6 0 -10 -43 -10 -110z"/>
<path d="M3190 230 c0 -91 3 -110 15 -110 11 0 15 12 15 46 0 38 3 45 18 42
12 -2 18 -15 20 -46 2 -30 8 -42 19 -42 12 0 14 9 9 48 -7 62 -7 62 0 99 8 39
-22 73 -66 73 l-30 0 0 -110z m68 44 c2 -25 -1 -33 -17 -37 -19 -5 -21 -1 -21
35 0 32 3 39 18 36 11 -2 18 -14 20 -34z"/>
<path d="M3626 318 c-19 -26 -22 -148 -6 -179 12 -22 59 -26 78 -7 8 8 12 45
12 100 0 76 -2 89 -19 98 -30 16 -48 12 -65 -12z m62 -83 c2 -75 -7 -101 -32
-92 -13 5 -16 22 -16 87 0 79 1 81 23 78 20 -3 22 -9 25 -73z"/>
</g>
</svg>
