<svg version="1.1" xmlns="http://www.w3.org/2000/svg" xmlns:xlink="http://www.w3.org/1999/xlink" width="550px" height="380px" viewBox="0,0,256,176.85938"><g fill="none" fill-rule="nonzero" stroke="none" stroke-width="1" stroke-linecap="butt" stroke-linejoin="miter" stroke-miterlimit="10" stroke-dasharray="" stroke-dashoffset="0" font-family="none" font-weight="none" font-size="none" text-anchor="none" style="mix-blend-mode: normal"><g transform="translate(2.25879,-29.00463) scale(0.46545,0.46545)"><g fill="#ffdb7e"><g data-paper-data="{&quot;isGlobalGroup&quot;:true,&quot;bounds&quot;:{&quot;x&quot;:157.87144484309266,&quot;y&quot;:115,&quot;width&quot;:234.25711031381474,&quot;height&quot;:239.99999999999994}}"><g data-paper-data="{&quot;stacked&quot;:true,&quot;isPrimaryText&quot;:true}"><path d="M181.79453,295.10109v13.28671h-6.35147v-34.13914h8.31295c3.51822,0 6.11407,0.83285 7.78755,2.49856c1.67349,1.6657 2.51023,4.21096 2.51023,7.63577c0,4.31215 -1.45554,7.32443 -4.36663,9.03683l6.56163,14.96798h-6.79514l-5.39408,-13.28671zM181.79453,289.63696h1.63457c1.49446,0 2.56861,-0.42421 3.22244,-1.27263c0.65383,-0.84842 0.98074,-2.11326 0.98074,-3.79454c0,-1.74354 -0.34637,-2.98503 -1.03912,-3.72448c-0.69275,-0.73945 -1.763,-1.10917 -3.21076,-1.10917h-1.58787z" data-paper-data="{&quot;glyphName&quot;:&quot;R&quot;,&quot;glyphIndex&quot;:0,&quot;firstGlyphOfWord&quot;:true,&quot;word&quot;:1,&quot;line&quot;:1,&quot;firstGlyphOfFirstLine&quot;:true}"></path><path d="M230.45799,308.3878l-1.96148,-8.61651h-8.89673l-1.96148,8.61651h-6.35147l8.45306,-34.27925h8.61651l8.47641,34.27925zM227.30561,294.1437l-1.82138,-7.93934c-0.10897,-0.48259 -0.35416,-1.69295 -0.73556,-3.63108c-0.3814,-1.93813 -0.61102,-3.23411 -0.68885,-3.88794c-0.20238,1.33879 -0.45924,2.81379 -0.77058,4.42501c-0.31135,1.61122 -1.12085,5.289 -2.4285,11.03334z" data-paper-data="{&quot;glyphName&quot;:&quot;A&quot;,&quot;glyphIndex&quot;:1,&quot;word&quot;:1,&quot;line&quot;:1}"></path><path d="M266.97894,308.3878l-6.49157,-29.07198h-0.25686c0.29578,2.24169 0.44367,4.29658 0.44367,6.16466v22.90732h-5.88445v-34.13914h9.76071l5.83775,26.83029h0.18681l5.79104,-26.83029h9.90082v34.13914h-6.02455v-23.14083c0,-1.91478 0.10897,-3.87626 0.32691,-5.88445h-0.18681l-6.46822,29.02528z" data-paper-data="{&quot;glyphName&quot;:&quot;M&quot;,&quot;glyphIndex&quot;:2,&quot;word&quot;:1,&quot;line&quot;:1}"></path><path d="M330.72713,291.27153c0,5.65094 -1.05858,9.99422 -3.17573,13.02985c-2.11716,3.03563 -5.145,4.55344 -9.08353,4.55344c-3.9541,0 -6.98973,-1.51392 -9.10689,-4.54177c-2.11716,-3.02784 -3.17573,-7.39059 -3.17573,-13.08823c0,-5.65094 1.05858,-9.98255 3.17573,-12.99482c2.11716,-3.01228 5.16835,-4.51842 9.15359,-4.51842c3.93853,0 6.95859,1.51392 9.06018,4.54177c2.10159,3.02784 3.15238,7.36724 3.15238,13.01818zM312.67682,291.27153c0,3.89183 0.49037,6.85741 1.47111,8.89673c0.98074,2.03932 2.42072,3.05898 4.31993,3.05898c3.82956,0 5.74434,-3.98524 5.74434,-11.95571c0,-7.97047 -1.89921,-11.95571 -5.69764,-11.95571c-1.93035,0 -3.38589,1.01577 -4.36663,3.0473c-0.98074,2.03154 -1.47111,5.001 -1.47111,8.9084z" data-paper-data="{&quot;glyphName&quot;:&quot;O&quot;,&quot;glyphIndex&quot;:3,&quot;word&quot;:1,&quot;line&quot;:1}"></path><path d="M374.55694,308.3878h-7.75253l-10.55465,-24.7287h-0.30356c0.38918,1.88365 0.58377,3.9074 0.58377,6.07126v18.65744h-5.88445v-34.13914h7.79923l10.46124,24.47184h0.25686c-0.29578,-1.63457 -0.44367,-3.58048 -0.44367,-5.83775v-18.63409h5.83775z" data-paper-data="{&quot;glyphName&quot;:&quot;N&quot;,&quot;glyphIndex&quot;:4,&quot;lastGlyphOfWord&quot;:true,&quot;word&quot;:1,&quot;line&quot;:1,&quot;lastGlyphOfFirstLine&quot;:true}"></path><path d="M164.22291,341.24627v13.28671h-6.35147v-34.13914h8.31295c3.51822,0 6.11407,0.83285 7.78755,2.49856c1.67349,1.6657 2.51023,4.21096 2.51023,7.63577c0,4.31215 -1.45554,7.32443 -4.36663,9.03683l6.56163,14.96798h-6.79514l-5.39408,-13.28671zM164.22291,335.78214h1.63457c1.49446,0 2.56861,-0.42421 3.22244,-1.27263c0.65383,-0.84842 0.98074,-2.11326 0.98074,-3.79454c0,-1.74354 -0.34637,-2.98503 -1.03912,-3.72448c-0.69275,-0.73945 -1.763,-1.10917 -3.21076,-1.10917h-1.58787z" data-paper-data="{&quot;glyphName&quot;:&quot;R&quot;,&quot;glyphIndex&quot;:5,&quot;firstGlyphOfWord&quot;:true,&quot;word&quot;:2,&quot;line&quot;:2,&quot;firstGlyphOfSecondLine&quot;:true}"></path><path d="M197.87169,354.53298v-34.13914h5.97785v34.13914z" data-paper-data="{&quot;glyphName&quot;:&quot;I&quot;,&quot;glyphIndex&quot;:6,&quot;word&quot;:2,&quot;line&quot;:2}"></path><path d="M226.00963,320.39384h8.70992c3.54935,0 6.13353,0.68885 7.75253,2.06656c1.619,1.37771 2.4285,3.56881 2.4285,6.5733c0,1.97705 -0.4281,3.63108 -1.2843,4.96208c-0.8562,1.33101 -2.02375,2.13662 -3.50265,2.41683v0.23351c1.93035,0.48259 3.32362,1.38549 4.17983,2.70871c0.8562,1.32322 1.2843,3.08233 1.2843,5.27732c0,3.0979 -0.82896,5.52251 -2.48688,7.27383c-1.65792,1.75132 -3.92686,2.62699 -6.80681,2.62699h-10.27443zM231.98748,334.12422h2.91887c1.33879,0 2.28061,-0.35805 2.82547,-1.07415c0.54486,-0.7161 0.81728,-1.78246 0.81728,-3.19909c0,-1.41663 -0.31135,-2.43239 -0.93404,-3.0473c-0.62269,-0.61491 -1.60343,-0.92236 -2.94222,-0.92236h-2.68536zM231.98748,339.42489v9.55055h3.19909c1.32322,0 2.30786,-0.40475 2.9539,-1.21425c0.64604,-0.8095 0.96907,-2.06267 0.96907,-3.75951c0,-3.0512 -1.33879,-4.57679 -4.01637,-4.57679z" data-paper-data="{&quot;glyphName&quot;:&quot;B&quot;,&quot;glyphIndex&quot;:7,&quot;word&quot;:2,&quot;line&quot;:2}"></path><path d="M280.58089,354.53298h-15.3883v-34.13914h15.3883v5.48748h-9.03683v8.12614h8.383v5.51083h-8.383v9.45715h9.03683z" data-paper-data="{&quot;glyphName&quot;:&quot;E&quot;,&quot;glyphIndex&quot;:8,&quot;word&quot;:2,&quot;line&quot;:2}"></path><path d="M301.64348,354.53298v-34.13914h5.97785v34.13914z" data-paper-data="{&quot;glyphName&quot;:&quot;I&quot;,&quot;glyphIndex&quot;:9,&quot;word&quot;:2,&quot;line&quot;:2}"></path><path d="M336.13289,341.24627v13.28671h-6.35147v-34.13914h8.31295c3.51822,0 6.11407,0.83285 7.78755,2.49856c1.67349,1.6657 2.51023,4.21096 2.51023,7.63577c0,4.31215 -1.45554,7.32443 -4.36663,9.03683l6.56163,14.96798h-6.79514l-5.39408,-13.28671zM336.13289,335.78214h1.63457c1.49446,0 2.56861,-0.42421 3.22244,-1.27263c0.65383,-0.84842 0.98074,-2.11326 0.98074,-3.79454c0,-1.74354 -0.34637,-2.98503 -1.03912,-3.72448c-0.69275,-0.73945 -1.763,-1.10917 -3.21076,-1.10917h-1.58787z" data-paper-data="{&quot;glyphName&quot;:&quot;R&quot;,&quot;glyphIndex&quot;:10,&quot;word&quot;:2,&quot;line&quot;:2}"></path><path d="M392.12856,337.41671c0,5.65094 -1.05858,9.99422 -3.17573,13.02985c-2.11716,3.03563 -5.145,4.55344 -9.08353,4.55344c-3.9541,0 -6.98973,-1.51392 -9.10689,-4.54177c-2.11716,-3.02784 -3.17573,-7.39059 -3.17573,-13.08823c0,-5.65094 1.05858,-9.98255 3.17573,-12.99482c2.11716,-3.01228 5.16835,-4.51842 9.15359,-4.51842c3.93853,0 6.95859,1.51392 9.06018,4.54177c2.10159,3.02784 3.15238,7.36724 3.15238,13.01818zM374.07824,337.41671c0,3.89183 0.49037,6.85741 1.47111,8.89673c0.98074,2.03932 2.42072,3.05898 4.31993,3.05898c3.82956,0 5.74434,-3.98524 5.74434,-11.95571c0,-7.97047 -1.89921,-11.95571 -5.69764,-11.95571c-1.93035,0 -3.38589,1.01577 -4.36663,3.0473c-0.98074,2.03154 -1.47111,5.001 -1.47111,8.9084z" data-paper-data="{&quot;glyphName&quot;:&quot;O&quot;,&quot;glyphIndex&quot;:11,&quot;lastGlyphOfWord&quot;:true,&quot;word&quot;:2,&quot;line&quot;:2,&quot;lastGlyphOfSecondLine&quot;:true}"></path></g><g data-paper-data="{&quot;isIcon&quot;:&quot;true&quot;,&quot;iconType&quot;:&quot;icon&quot;,&quot;rawIconId&quot;:&quot;36896dc1-4f37-4e04-85fb-7e88ca164f32&quot;,&quot;selectedEffects&quot;:{&quot;container&quot;:&quot;&quot;,&quot;transformation&quot;:&quot;&quot;,&quot;pattern&quot;:&quot;&quot;},&quot;isDetailed&quot;:true,&quot;iconStyle&quot;:&quot;standalone&quot;,&quot;bounds&quot;:{&quot;x&quot;:214.44137509905698,&quot;y&quot;:115,&quot;width&quot;:121.11724980188609,&quot;height&quot;:123.10559619291033},&quot;fillRule&quot;:&quot;nonzero&quot;,&quot;suitableAsStandaloneIcon&quot;:true}"><path d="M335.55862,238.1056h-22.99585c-6.05154,0 -11.1089,-1.67138 -15.17208,-5.01413c-4.06317,-3.34275 -7.0169,-7.46357 -8.86118,-12.36243l-10.97922,-30.4306c-1.49848,-4.7836 -3.2563,-8.40011 -5.27349,-10.84954c-2.01718,-2.44943 -4.92768,-3.7606 -8.73151,-3.9335h-2.50706c0,-1.09504 0.47548,-2.10363 1.42644,-3.02577c0.95095,-0.92214 2.29094,-1.38321 4.01995,-1.38321h2.07482c3.97672,0 7.46357,-1.41203 10.46052,-4.23608c2.99695,-2.82405 5.31671,-6.22444 6.95927,-10.20116c1.64256,-3.97672 2.46384,-7.75173 2.46384,-11.32503c0,-3.63093 -0.82128,-7.44916 -2.46384,-11.4547c-1.64256,-4.00554 -3.94791,-7.43475 -6.91605,-10.28762c-2.96814,-2.85287 -6.46938,-4.2793 -10.50375,-4.2793h-14.69659v40.71822c-5.3023,0 -10.14353,-0.92214 -14.5237,-2.76642c-4.38016,-1.84428 -7.88141,-4.6107 -10.50375,-8.29926c-2.62233,-3.68856 -3.9335,-8.32807 -3.9335,-13.91854c0,-4.2649 -0.31698,-7.60765 -0.95095,-10.02826c-1.32558,-4.9565 -4.49543,-7.43475 -9.50956,-7.43475v-2.59352h54.11806c13.94736,0 25.50291,2.36298 34.66667,7.08894c10.02826,5.18704 15.0424,12.93877 15.0424,23.2552c0,16.13744 -9.42311,25.70464 -28.26934,28.70159c3.74619,0.3458 7.29066,1.81546 10.63342,4.40898c2.13245,1.61374 3.67415,3.24189 4.6251,4.88446c0.95095,1.64256 1.80105,3.64533 2.55029,6.00832l9.76892,28.18289c0.80687,2.36298 2.14686,4.91327 4.01995,7.65088c1.87309,2.7376 4.01995,5.1294 6.44057,7.1754c2.42061,2.046 4.87005,3.069 7.3483,3.069zM239.4256,188.31007c-3.45802,0 -6.41175,-1.22472 -8.86118,-3.67415c-2.44943,-2.44943 -3.67415,-5.40316 -3.67415,-8.86118c0,-3.45802 1.22472,-6.41175 3.67415,-8.86118c2.44943,-2.44943 5.40316,-3.67415 8.86118,-3.67415c3.45802,0 6.39734,1.22472 8.81796,3.67415c2.42061,2.44943 3.63093,5.40316 3.63093,8.86118c0,3.45802 -1.21031,6.41175 -3.63093,8.86118c-2.42061,2.44943 -5.35994,3.67415 -8.81796,3.67415zM264.40981,238.1056h-49.96843v-2.67997c4.72596,0 7.80937,-3.11222 9.25021,-9.33666c0.8645,-3.68856 1.29676,-8.32807 1.29676,-13.91854l-0.08645,-20.57524c5.3023,0 10.15794,1.00859 14.56692,3.02577c4.40898,2.01718 7.91022,4.97091 10.50375,8.86118c2.59352,3.89027 3.89027,8.63065 3.89027,14.22112c0.11527,4.66833 0.46107,8.09754 1.0374,10.28762c1.32558,4.9565 4.49543,7.43475 9.50956,7.43475z" data-paper-data="{&quot;isPathIcon&quot;:true}"></path></g></g></g><g fill="#000000" opacity="0.04"><path d="M129.52,370.3c1.33469,1.60142 2.22448,3.52585 2.58,5.58c0.1621,0.99145 0.19906,1.99934 0.11,3c-0.08795,0.9999 -0.30302,1.9845 -0.64,2.93c-0.35519,0.96172 -0.82884,1.87543 -1.41,2.72c-0.60171,0.86618 -1.31826,1.64665 -2.13,2.32c-0.80232,0.67634 -1.68989,1.24452 -2.64,1.69c-0.93138,0.413 -1.90808,0.71507 -2.91,0.9c-0.99152,0.16068 -1.99882,0.20097 -3,0.12c-0.99932,-0.09172 -1.98346,-0.30668 -2.93,-0.64c-0.96255,-0.34039 -1.87685,-0.80427 -2.72,-1.38c-1.72637,-1.22255 -3.10487,-2.87331 -4,-4.79c-0.42132,-0.93089 -0.72047,-1.91237 -0.89,-2.92c-0.16732,-0.99077 -0.21098,-1.99847 -0.13,-3c0.08583,-0.99696 0.30097,-1.97853 0.64,-2.92c0.70247,-1.94764 1.91045,-3.67332 3.5,-5c0.80754,-0.68413 1.70611,-1.25289 2.67,-1.69c0.92907,-0.43045 1.91088,-0.73642 2.92,-0.91c0.9894,-0.18066 1.99933,-0.22106 3,-0.12c2.02869,0.16217 3.9798,0.85161 5.66,2c0.87221,0.59769 1.65938,1.31085 2.34,2.12M128.14,379.07c-0.32746,0.81246 -0.73621,1.58975 -1.22,2.32c-0.50703,0.74787 -1.11628,1.42107 -1.81,2c-0.70145,0.60039 -1.50853,1.06497 -2.38,1.37c-1.68935,0.59572 -3.5542,0.42784 -5.11,-0.46c-1.78276,-1.0255 -3.14622,-2.64749 -3.85,-4.58c-0.2917,-0.85463 -0.40736,-1.75947 -0.34,-2.66c0.0768,-0.86898 0.33939,-1.71132 0.77,-2.47c0.44178,-0.80962 1.03604,-1.52612 1.75,-2.11c0.34371,-0.29544 0.70796,-0.56612 1.09,-0.81c0.35634,-0.23887 0.73082,-0.44951 1.12,-0.63c0.38402,-0.18423 0.78191,-0.33804 1.19,-0.46c0.43302,-0.14699 0.87366,-0.2705 1.32,-0.37l2,2.38c-0.52298,0.02478 -1.04396,0.08156 -1.56,0.17c-0.41797,0.07329 -0.82931,0.18031 -1.23,0.32c-0.35234,0.1213 -0.68824,0.28589 -1,0.49c-0.32939,0.19511 -0.64063,0.41934 -0.93,0.67c-0.47343,0.38076 -0.86466,0.85363 -1.15,1.39c-0.26135,0.48839 -0.4148,1.0272 -0.45,1.58c-0.02417,0.55531 0.06427,1.10977 0.26,1.63c0.47843,1.16004 1.30242,2.14464 2.36,2.82c0.48534,0.27384 1.01799,0.45365 1.57,0.53c0.54595,0.05769 1.09792,-0.00023 1.62,-0.17c0.57581,-0.19269 1.10893,-0.49491 1.57,-0.89c0.29084,-0.24803 0.56792,-0.51176 0.83,-0.79c0.24701,-0.28765 0.46475,-0.59919 0.65,-0.93c0.20351,-0.36841 0.38386,-0.74915 0.54,-1.14c0.17807,-0.48685 0.32503,-0.98452 0.44,-1.49l2,2.33M113.73,383.66c0.76704,0.92035 1.71277,1.67557 2.78,2.22c1.02647,0.52084 2.14331,0.83993 3.29,0.94c1.1432,0.09019 2.29317,-0.03532 3.39,-0.37c1.14174,-0.34374 2.20041,-0.91904 3.11,-1.69c0.92155,-0.76586 1.67699,-1.71186 2.22,-2.78c0.53826,-1.02361 0.87758,-2.13999 1,-3.29c0.32439,-3.63119 -1.58614,-7.09624 -4.83,-8.76c-2.08427,-1.05647 -4.49773,-1.26088 -6.73,-0.57c-2.30396,0.71542 -4.22424,2.32586 -5.33,4.47c-1.05734,2.07687 -1.26186,4.48454 -0.57,6.71c0.34759,1.14521 0.92615,2.20705 1.7,3.12"></path><path d="M147,349c-0.48,0.12 -1.09,0.31 -1.82,0.57c-0.81722,0.29039 -1.61836,0.6242 -2.4,1c-0.95226,0.42517 -1.88034,0.90256 -2.78,1.43c-0.95396,0.57285 -1.86022,1.22161 -2.71,1.94c-0.7,0.59 -1.28,1.11 -1.74,1.57c-0.38857,0.38637 -0.75579,0.79364 -1.1,1.22c-0.23694,0.27889 -0.43538,0.58832 -0.59,0.92c-0.10422,0.20143 -0.17834,0.41706 -0.22,0.64c-0.03207,0.15503 -0.03207,0.31497 0,0.47c0.05083,0.10206 0.1111,0.19915 0.18,0.29c0.25256,0.27975 0.62618,0.41798 1,0.37c0.51871,-0.05495 1.02707,-0.18288 1.51,-0.38c0.58,-0.23333 1.23,-0.53333 1.95,-0.9l2.26,-1.18c0.8,-0.43333 1.63,-0.86333 2.49,-1.29c0.87,-0.44 1.73,-0.83 2.59,-1.17c0.84611,-0.33204 1.71502,-0.60274 2.6,-0.81c0.80333,-0.20628 1.63072,-0.30382 2.46,-0.29c0.7705,0.0238 1.52994,0.18993 2.24,0.49c0.73733,0.33373 1.38504,0.83751 1.89,1.47c0.66948,0.74647 1.15266,1.64088 1.41,2.61c0.21979,0.84965 0.25051,1.73718 0.09,2.6c-0.16173,0.88315 -0.46568,1.73421 -0.9,2.52c-0.47527,0.83235 -1.01704,1.62493 -1.62,2.37c-0.62201,0.75695 -1.28993,1.47497 -2,2.15c-0.72,0.67 -1.41,1.29 -2.09,1.87c-1.65387,1.40145 -3.43876,2.6405 -5.33,3.7c-1.56996,0.8961 -3.2124,1.65878 -4.91,2.28l-3.61,-4.3c1.87214,-0.37974 3.68494,-1.00867 5.39,-1.87c1.93518,-0.96767 3.748,-2.16278 5.4,-3.56c0.8499,-0.69505 1.64554,-1.45392 2.38,-2.27c0.45979,-0.51752 0.85595,-1.08826 1.18,-1.7c0.19457,-0.36547 0.2878,-0.77635 0.27,-1.19c-0.01672,-0.26923 -0.11431,-0.52714 -0.28,-0.74c-0.24841,-0.28992 -0.61907,-0.4456 -1,-0.42c-0.53323,0.01665 -1.05876,0.13193 -1.55,0.34c-0.68621,0.24674 -1.35448,0.54078 -2,0.88c-0.72,0.37 -1.48,0.77 -2.27,1.21l-2.45,1.3c-0.85,0.45 -1.7,0.85 -2.56,1.21c-0.82871,0.3372 -1.6769,0.62438 -2.54,0.86c-0.79381,0.2059 -1.60994,0.31338 -2.43,0.32c-0.75575,-0.00422 -1.50329,-0.15712 -2.2,-0.45c-0.73762,-0.32401 -1.38602,-0.82146 -1.89,-1.45c-0.61339,-0.69387 -1.06131,-1.5179 -1.31,-2.41c-0.19613,-0.78828 -0.23015,-1.60818 -0.1,-2.41c0.14728,-0.82994 0.42043,-1.63252 0.81,-2.38c0.42393,-0.79258 0.92288,-1.54268 1.49,-2.24c0.57386,-0.72078 1.19171,-1.40542 1.85,-2.05c0.66667,-0.66667 1.33333,-1.25667 2,-1.77c0.7,-0.59 1.44,-1.15 2.23,-1.7c0.79,-0.55 1.62,-1.06 2.44,-1.53c0.82,-0.47 1.63,-0.91 2.43,-1.3c0.8,-0.39 1.58,-0.75 2.3,-1l3.56,4.16"></path><path d="M186.76,337.57l-10.6,-12.63l3.92,18.24l-4.66,3.91l-17.27,-7l10.6,12.63l-4.86,4.07l-15.09,-18l6.59,-5.54l18.69,7.52l-4.15,-19.71l6.57,-5.52l15.09,18l-4.83,4.05"></path><path d="M208.84,313.24l-10,8.42l1.16,4.82l-5.44,4.52l-5.68,-25.89l5.42,-4.55l24.51,10.09l-5.42,4.55l-4.55,-2M197.61,316.65l6.57,-5.52l-8.83,-3.87l2.26,9.39"></path><path d="M227.49,281.38c-0.48,0.12 -1.09,0.31 -1.82,0.57c-0.81722,0.29039 -1.61836,0.6242 -2.4,1c-0.92809,0.43655 -1.82965,0.9274 -2.7,1.47c-0.95396,0.57285 -1.86022,1.22161 -2.71,1.94c-0.7,0.59 -1.28,1.11 -1.74,1.57c-0.39129,0.38377 -0.75865,0.7912 -1.1,1.22c-0.23437,0.27715 -0.43262,0.58293 -0.59,0.91c-0.1031,0.20543 -0.17714,0.42419 -0.22,0.65c-0.03207,0.15503 -0.03207,0.31497 0,0.47c0.05083,0.10206 0.1111,0.19915 0.18,0.29c0.25256,0.27975 0.62618,0.41798 1,0.37c0.51871,-0.05495 1.02707,-0.18288 1.51,-0.38c0.58,-0.22667 1.24667,-0.52667 2,-0.9l2.26,-1.18c0.8,-0.42667 1.63,-0.85667 2.49,-1.29c0.87,-0.44 1.73,-0.83 2.59,-1.17c0.84611,-0.33204 1.71502,-0.60274 2.6,-0.81c0.80333,-0.20628 1.63072,-0.30382 2.46,-0.29c0.77099,0.01978 1.53117,0.18607 2.24,0.49c0.73687,0.32989 1.3847,0.83033 1.89,1.46c0.6658,0.74906 1.14848,1.64254 1.41,2.61c0.21902,0.85317 0.24973,1.74377 0.09,2.61c-0.16173,0.88315 -0.46568,1.73421 -0.9,2.52c-0.47302,0.83298 -1.01846,1.62269 -1.63,2.36c-0.61632,0.76503 -1.28457,1.48674 -2,2.16c-0.72,0.67 -1.41,1.29 -2.1,1.86c-1.64862,1.40653 -3.43037,2.64906 -5.32,3.71c-1.57236,0.89818 -3.2183,1.66093 -4.92,2.28l-3.6,-4.3c1.87214,-0.37974 3.68494,-1.00867 5.39,-1.87c1.93518,-0.96767 3.748,-2.16278 5.4,-3.56c0.8499,-0.69505 1.64554,-1.45392 2.38,-2.27c0.45979,-0.51752 0.85595,-1.08826 1.18,-1.7c0.1653,-0.36999 0.23081,-0.77682 0.19,-1.18c-0.01672,-0.26923 -0.11431,-0.52714 -0.28,-0.74c-0.24841,-0.28992 -0.61907,-0.4456 -1,-0.42c-0.53323,0.01665 -1.05876,0.13193 -1.55,0.34c-0.68533,0.24893 -1.35346,0.5429 -2,0.88c-0.71,0.37 -1.47,0.77 -2.26,1.21l-2.46,1.3c-0.84,0.44 -1.7,0.85 -2.55,1.21c-0.83035,0.33277 -1.67829,0.61986 -2.54,0.86c-0.76947,0.21381 -1.56178,0.33467 -2.36,0.36c-0.75575,-0.00422 -1.50329,-0.15712 -2.2,-0.45c-0.73762,-0.32401 -1.38602,-0.82146 -1.89,-1.45c-0.61339,-0.69387 -1.06131,-1.5179 -1.31,-2.41c-0.20245,-0.78736 -0.23652,-1.60857 -0.1,-2.41c0.14288,-0.83107 0.41625,-1.63431 0.81,-2.38c0.42619,-0.79436 0.92498,-1.54757 1.49,-2.25c0.57525,-0.70381 1.19308,-1.37173 1.85,-2c0.66667,-0.66667 1.33333,-1.25667 2,-1.77c0.7,-0.59 1.44,-1.15 2.23,-1.7c0.79,-0.55 1.62,-1.06 2.44,-1.53c0.82,-0.47 1.63,-0.91 2.43,-1.31c0.8,-0.4 1.58,-0.74 2.3,-1l3.5,4.16"></path><path d="M261.64,274.74l-6.29,-7.5l-12.35,10.37l6.3,7.5l-4.86,4.07l-15.09,-18l4.85,-4.08l5.49,6.55l12.31,-10.35l-5.49,-6.55l4.86,-4.07l15.09,18l-4.86,4.08"></path><path d="M272.18,265.9l-15.09,-18l4.86,-4.08l15.09,18l-4.86,4.08"></path><path d="M299.65,242.85l-22.51,-2.18l10.37,12.33l-4.85,4.08l-15.1,-18l5.28,-4.43l22.56,2.22l-10.4,-12.37l4.83,-4.06l15.09,18l-5.26,4.42"></path><path d="M306.68,205.52c1.63542,-1.39524 3.40778,-2.62148 5.29,-3.66c1.64614,-0.92267 3.36525,-1.70864 5.14,-2.35l3.69,4.39c-0.8013,0.15657 -1.59268,0.36026 -2.37,0.61c-0.89177,0.27348 -1.7638,0.60759 -2.61,1c-0.95014,0.43869 -1.87194,0.93633 -2.76,1.49c-0.98017,0.59853 -1.91593,1.26693 -2.8,2c-1.02041,0.83095 -1.9581,1.7586 -2.8,2.77c-0.64399,0.77249 -1.19447,1.61835 -1.64,2.52c-0.35079,0.7032 -0.58068,1.46046 -0.68,2.24c-0.16887,1.25256 0.06211,2.52647 0.66,3.64c0.26532,0.49093 0.5803,0.95335 0.94,1.38c0.32959,0.3861 0.69085,0.74401 1.08,1.07c0.44651,0.36853 0.94104,0.67466 1.47,0.91c0.60019,0.24997 1.23344,0.41165 1.88,0.48c0.76467,0.07439 1.53647,0.01346 2.28,-0.18c0.95481,-0.23967 1.87545,-0.59919 2.74,-1.07c1.13156,-0.63181 2.1969,-1.37553 3.18,-2.22c0.57,-0.48 1.06,-0.92 1.46,-1.31c0.35263,-0.35914 0.68641,-0.73631 1,-1.13c0.29004,-0.33407 0.56049,-0.68466 0.81,-1.05l0.74,-1.09l-1.82,-2.17l-5.45,4.57l-3.31,-3.94l10.31,-8.65l7.71,9.19c-0.5151,0.83779 -1.07249,1.64884 -1.67,2.43c-0.66667,0.84 -1.36667,1.68 -2.1,2.52c-0.74,0.84 -1.5,1.65 -2.3,2.44c-0.8,0.79 -1.58,1.5 -2.33,2.14c-1.13277,0.95466 -2.33251,1.8269 -3.59,2.61c-1.15563,0.71858 -2.37393,1.33108 -3.64,1.83c-1.17008,0.4407 -2.38877,0.7395 -3.63,0.89c-1.16371,0.14115 -2.34269,0.09048 -3.49,-0.15c-1.161,-0.25361 -2.27024,-0.70339 -3.28,-1.33c-1.13695,-0.72305 -2.14994,-1.62461 -3,-2.67c-0.88183,-1.02155 -1.58503,-2.18453 -2.08,-3.44c-0.43574,-1.11728 -0.67592,-2.30124 -0.71,-3.5c-0.01854,-1.18973 0.15364,-2.37475 0.51,-3.51c0.38059,-1.20175 0.90436,-2.35335 1.56,-3.43c0.70157,-1.16711 1.51184,-2.26532 2.42,-3.28c0.97677,-1.07418 2.02948,-2.07676 3.15,-3"></path><path d="M336.91,211.59l-15.1,-18l4.86,-4.08l11.79,14l13.13,-11l3.31,3.94l-18,15.1"></path><path d="M374.54,164.71c1.21354,1.38852 2.09878,3.03253 2.59,4.81c0.405,1.64206 0.405,3.35794 0,5c-0.45236,1.79942 -1.2431,3.49628 -2.33,5c-1.30198,1.80861 -2.83499,3.43912 -4.56,4.85c-1.70116,1.45895 -3.58335,2.69245 -5.6,3.67c-1.68665,0.81291 -3.51232,1.29817 -5.38,1.43c-1.69457,0.1099 -3.39034,-0.19561 -4.94,-0.89c-3.33715,-1.64088 -5.83038,-4.60954 -6.87,-8.18c-0.40341,-1.64226 -0.40341,-3.35774 0,-5c0.45892,-1.80252 1.26013,-3.5 2.36,-5c1.29941,-1.82572 2.83626,-3.47019 4.57,-4.89c1.69237,-1.4576 3.57243,-2.68182 5.59,-3.64c1.67446,-0.81713 3.49115,-1.30271 5.35,-1.43c1.69401,-0.10378 3.38744,0.21223 4.93,0.92c1.66307,0.78986 3.12617,1.9453 4.28,3.38M369.62,168.85c-0.57144,-0.67556 -1.24651,-1.25612 -2,-1.72c-0.79586,-0.50583 -1.7084,-0.79853 -2.65,-0.85c-1.13513,-0.0567 -2.26878,0.13793 -3.32,0.57c-1.4623,0.61536 -2.81361,1.46669 -4,2.52c-0.87237,0.71755 -1.66977,1.52166 -2.38,2.4c-0.55874,0.68307 -1.02601,1.43608 -1.39,2.24c-0.29955,0.66492 -0.48869,1.37422 -0.56,2.1c-0.07354,0.63446 -0.03973,1.27677 0.1,1.9c0.12033,0.58993 0.32582,1.15922 0.61,1.69c0.28987,0.50877 0.62453,0.99068 1,1.44c0.38475,0.44462 0.80624,0.85607 1.26,1.23c0.47885,0.37695 1.0071,0.6865 1.57,0.92c0.59155,0.2322 1.21574,0.37053 1.85,0.41c0.72274,0.04827 1.44856,-0.01925 2.15,-0.2c0.85374,-0.23408 1.6763,-0.56982 2.45,-1c0.98323,-0.55662 1.91081,-1.20626 2.77,-1.94c1.24743,-0.98933 2.32203,-2.17883 3.18,-3.52c0.60813,-0.96015 0.99735,-2.04245 1.14,-3.17c0.11022,-0.92993 -0.01708,-1.87262 -0.37,-2.74c-0.32954,-0.83342 -0.78852,-1.60963 -1.36,-2.3"></path><path d="M382.66,141.76c1.65294,-1.39575 3.44192,-2.62191 5.34,-3.66c1.64861,-0.92463 3.3712,-1.71067 5.15,-2.35l3.69,4.4c-0.8017,0.15054 -1.59324,0.35093 -2.37,0.6c-0.89025,0.27788 -1.76199,0.61188 -2.61,1c-0.95256,0.44031 -1.87758,0.93789 -2.77,1.49c-0.98017,0.59853 -1.91593,1.26693 -2.8,2c-1.01851,0.83674 -1.95598,1.76751 -2.8,2.78c-0.64029,0.77161 -1.19051,1.61372 -1.64,2.51c-0.34585,0.70516 -0.57548,1.46158 -0.68,2.24c-0.08565,0.66566 -0.0654,1.34067 0.06,2c0.11531,0.58815 0.32109,1.15488 0.61,1.68c0.26192,0.49064 0.57356,0.95306 0.93,1.38c0.32931,0.38944 0.69056,0.75069 1.08,1.08c0.45138,0.3641 0.94905,0.66674 1.48,0.9c0.59334,0.25989 1.22484,0.42199 1.87,0.48c0.76414,0.0732 1.53516,0.01571 2.28,-0.17c0.95421,-0.24613 1.87448,-0.60886 2.74,-1.08c1.13458,-0.62698 2.20039,-1.37104 3.18,-2.22c0.58,-0.48 1.06,-0.92 1.46,-1.31c0.4,-0.39 0.75,-0.77 1.05,-1.12c0.3,-0.35 0.57,-0.72 0.81,-1.06l0.73,-1.09l-1.82,-2.17l-5.45,4.57l-3.3,-3.94l10.3,-8.65l7.71,9.19c-0.5151,0.83779 -1.07249,1.64884 -1.67,2.43c-0.66667,0.84 -1.36667,1.68 -2.1,2.52c-0.73,0.84 -1.5,1.66 -2.3,2.44c-0.8,0.78 -1.57,1.5 -2.33,2.14c-1.13277,0.95466 -2.33251,1.8269 -3.59,2.61c-1.15454,0.72053 -2.37302,1.33312 -3.64,1.83c-1.16664,0.44066 -2.38203,0.73947 -3.62,0.89c-1.16336,0.13951 -2.34155,0.09224 -3.49,-0.14c-1.15882,-0.26064 -2.26692,-0.70996 -3.28,-1.33c-1.1348,-0.7299 -2.14726,-1.63436 -3,-2.68c-0.87904,-1.01986 -1.582,-2.17907 -2.08,-3.43c-0.46047,-1.12022 -0.7276,-2.31044 -0.79,-3.52c-0.01786,-1.18968 0.15431,-2.37459 0.51,-3.51c0.38183,-1.20295 0.90906,-2.3548 1.57,-3.43c0.70067,-1.16771 1.511,-2.266 2.42,-3.28c0.97329,-1.07408 2.02267,-2.07667 3.14,-3"></path><path d="M428.63,119.31c1.21542,1.39103 2.10081,3.03873 2.59,4.82c0.405,1.64206 0.405,3.35794 0,5c-0.45331,1.80089 -1.24764,3.49818 -2.34,5c-1.29896,1.81406 -2.83227,3.44824 -4.56,4.86c-1.69759,1.45885 -3.57646,2.69239 -5.59,3.67c-1.68707,0.81177 -3.51252,1.29697 -5.38,1.43c-1.69748,0.10434 -3.39518,-0.2009 -4.95,-0.89c-1.67058,-0.78234 -3.14108,-1.93481 -4.3,-3.37c-1.21087,-1.38582 -2.08678,-3.03158 -2.56,-4.81c-0.40341,-1.64226 -0.40341,-3.35774 0,-5c0.45304,-1.80281 1.25108,-3.50076 2.35,-5c2.65131,-3.61911 6.13656,-6.54522 10.16,-8.53c1.6779,-0.81742 3.49791,-1.30299 5.36,-1.43c1.69078,-0.10378 3.38097,0.21227 4.92,0.92c1.66225,0.78668 3.12532,1.93869 4.28,3.37M423.7,123.47c-0.5691,-0.67788 -1.24457,-1.25879 -2,-1.72c-0.79641,-0.50612 -1.70816,-0.80201 -2.65,-0.86c-1.13224,-0.04754 -2.26138,0.15031 -3.31,0.58c-1.4623,0.61536 -2.81361,1.46669 -4,2.52c-0.8748,0.71488 -1.67247,1.51925 -2.38,2.4c-0.56512,0.68042 -1.03602,1.43386 -1.4,2.24c-0.29486,0.66658 -0.4838,1.37511 -0.56,2.1c-0.06793,0.63462 -0.03418,1.27602 0.1,1.9c0.12376,0.59038 0.33261,1.15965 0.62,1.69c0.28275,0.51322 0.61787,0.99579 1,1.44c0.37962,0.44943 0.80156,0.86132 1.26,1.23c0.47885,0.37695 1.0071,0.6865 1.57,0.92c0.5879,0.23277 1.20889,0.37114 1.84,0.41c0.72605,0.04831 1.45516,-0.0192 2.16,-0.2c0.85313,-0.23588 1.67548,-0.57153 2.45,-1c0.97993,-0.5569 1.90417,-1.20655 2.76,-1.94c1.24751,-0.99223 2.32496,-2.18115 3.19,-3.52c0.6055,-0.96057 0.99136,-2.04302 1.13,-3.17c0.11383,-0.92908 -0.01004,-1.87185 -0.36,-2.74c-0.33306,-0.83385 -0.7954,-1.61003 -1.37,-2.3"></path></g></g></g></svg>