<svg version="1.1" xmlns="http://www.w3.org/2000/svg" xmlns:xlink="http://www.w3.org/1999/xlink" width="100%" height="81.6042661872591px" viewBox="0,0,256,208.90625"><g fill="#ffdb7e" fill-rule="nonzero" stroke="none" stroke-width="1" stroke-linecap="butt" stroke-linejoin="miter" stroke-miterlimit="10" stroke-dasharray="" stroke-dashoffset="0" font-family="none" font-weight="none" font-size="none" text-anchor="none" style="mix-blend-mode: normal"><g transform="translate(-164.56939,-497.14686) scale(2.53184,2.56)"><g data-paper-data="{&quot;initialText&quot;:&quot;R&quot;,&quot;blockLetter&quot;:&quot;R&quot;,&quot;blockLetterId&quot;:289,&quot;fillRule&quot;:&quot;nonzero&quot;,&quot;selectedEffects&quot;:{&quot;container&quot;:&quot;block-letter-extended2-outline-thick-R-289&quot;,&quot;transformation&quot;:&quot;&quot;,&quot;pattern&quot;:&quot;&quot;},&quot;relativeBoundsIconToContainer&quot;:{&quot;top&quot;:0.023912716501360273,&quot;left&quot;:-0.016472266631289437},&quot;widthRatioIconToContainer&quot;:0.6227002274121886,&quot;heightRatioIconToContainer&quot;:0.7339399359968153,&quot;bounds&quot;:{&quot;x&quot;:65.00000000000003,&quot;y&quot;:194.19786690637045,&quot;width&quot;:101.11235826240949,&quot;height&quot;:81.6042661872591},&quot;isIcon&quot;:&quot;true&quot;,&quot;iconType&quot;:&quot;initial&quot;,&quot;iconStyle&quot;:&quot;standalone&quot;,&quot;rawInitialId&quot;:727,&quot;suitableAsStandaloneIcon&quot;:true}"><path d="M133.23225,240.12029c3.0802,0.13858 11.97042,8.47771 11.97042,19.09174v7.68566h-7.73159v-7.68566c0,-7.52413 -8.18656,-14.41037 -10.9799,-15.20006c-5.09315,1.64517 -20.24885,5.4341 -36.14404,3.16192v19.72381h-7.93786v-59.89263h7.93786v0.00467c48.01795,0 55.02483,7.19993 55.02483,18.25767c0,8.65009 -10.17731,13.98221 -12.13972,14.85288zM137.49131,225.26702c0,-9.61184 -18.17593,-10.25753 -47.14457,-10.25753v24.38067c27.68775,3.07901 47.14457,-6.65699 47.14457,-14.12313zM165.00088,268.15218c1.16121,1.58316 1.41254,3.11172 0.75399,4.58568c-0.66445,1.48709 -1.99545,2.33051 -3.99297,2.53026c-3.20212,0.30498 -7.82251,0.45608 -13.86116,0.45333l-55.8304,0.07987l-0.57113,0.00081c-5.23559,0.00001 -9.12131,-0.18007 -11.65715,-0.54023c-2.89508,-0.34852 -4.34262,-2.00098 -4.34262,-4.9574v-54.48056h-5.52677c-2.62889,0 -4.14539,-1.11141 -4.54953,-3.33424c-0.28209,-1.69173 -0.42314,-4.16279 -0.42314,-7.41317c0,-3.1629 0.13951,-5.58142 0.41853,-7.25558c0.4072,-2.2404 1.92525,-3.3606 4.55414,-3.3606h7.34963l35.46405,-0.25647l5.21933,-0.00602c15.10393,0 25.90858,1.75144 32.41395,5.25433c7.69342,4.14262 11.54013,11.44213 11.54013,21.89851c0,10.757 -5.17456,18.20813 -15.52369,22.35338zM118.00984,197.84359l-5.19713,0.0058l-35.49041,0.25669h-7.34963c-0.60051,0 -0.91986,0.10474 -0.95809,0.31422c-0.24595,1.47568 -0.36892,3.69443 -0.36892,6.65623c0,3.0493 0.12144,5.303 0.36432,6.76112c0.04129,0.22705 0.36219,0.34058 0.96269,0.34058h6.0372c2.09019,0 3.1353,1.0451 3.1353,3.1353v54.99099c0,0.8031 0.38206,1.2496 1.14619,1.3395c0.01502,0.00176 0.02997,0.0037 0.04484,0.00583c2.36435,0.33777 6.08361,0.50666 11.15777,0.50666l0.57113,-0.00082l55.8374,-0.07988c5.92258,0.0027 10.42149,-0.14237 13.49675,-0.43524c0.59519,-0.05952 0.93755,-0.18948 1.02709,-0.3899c0.08239,-0.1843 -0.02719,-0.48221 -0.32877,-0.89374l-18.63656,-24.54255c-0.01079,-0.01415 -0.02132,-0.02844 -0.03161,-0.04287c-0.65359,-0.91499 -0.95115,-1.7817 -0.89268,-2.60015c0.09158,-1.28254 0.87959,-2.20926 2.36402,-2.78018c8.9422,-3.52272 13.4133,-9.86954 13.4133,-19.04047c0,-9.00468 -3.20763,-15.23419 -9.62288,-18.68852c-5.96582,-3.2124 -16.19292,-4.8186 -30.68132,-4.8186z" data-paper-data="{&quot;isPathIcon&quot;:true}"></path></g></g></g></svg>