<svg version="1.0" xmlns="http://www.w3.org/2000/svg"
 width="451.000000pt" height="152.000000pt" viewBox="0 0 451.000000 152.000000"
 preserveAspectRatio="xMidYMid meet">

<g transform="translate(0.000000,152.000000) scale(0.100000,-0.100000)"
fill="#FFDB6E" stroke="none">
<path d="M0 760 l0 -760 2255 0 2255 0 0 760 0 760 -2255 0 -2255 0 0 -760z
m884 662 c217 -60 316 -157 316 -312 0 -81 -12 -125 -49 -180 -37 -55 -98 -95
-185 -122 -63 -19 -68 -22 -44 -29 48 -13 103 -49 127 -84 13 -19 52 -118 87
-220 35 -102 70 -198 78 -213 32 -62 95 -129 140 -151 77 -36 52 -44 -118 -38
-173 6 -210 16 -272 70 -62 55 -75 82 -189 405 -24 67 -53 138 -65 157 -25 41
-66 65 -110 65 -16 0 -30 4 -30 9 0 20 46 41 86 41 64 0 129 49 173 130 34 61
36 71 36 155 0 76 -4 98 -26 145 -32 67 -90 127 -138 141 -20 6 -76 9 -125 7
l-89 -3 2 -224 2 -224 -58 5 c-82 8 -156 42 -202 94 -44 50 -58 94 -67 212 -7
96 -31 141 -82 156 -17 5 -32 15 -32 23 0 13 52 14 378 11 347 -5 383 -7 456
-26z m2888 -102 c73 -49 73 -51 73 -370 0 -316 -1 -320 -66 -372 -66 -54 -192
-51 -256 5 -61 53 -63 66 -63 365 0 258 1 269 23 312 33 65 90 93 183 88 55
-2 79 -9 106 -28z m415 18 c6 -7 28 -80 49 -162 l39 -149 3 148 c1 92 7 154
14 162 8 10 29 13 67 11 53 -3 56 -4 61 -32 3 -16 4 -195 2 -398 l-2 -368 -75
0 -74 0 -9 33 c-5 17 -31 113 -58 212 l-49 180 -3 -212 -2 -213 -70 0 -70 0 0
393 c0 217 3 397 7 400 12 13 160 8 170 -5z m-2237 -34 c54 -30 70 -73 70
-182 0 -97 -10 -131 -49 -166 l-20 -19 24 -18 c34 -28 43 -67 48 -216 l4 -133
-59 0 -58 0 0 114 c0 143 -9 172 -60 187 -69 21 -70 18 -70 -151 l0 -150 -55
0 -55 0 0 381 0 381 123 -4 c100 -3 129 -8 157 -24z m542 -24 c3 -25 29 -187
57 -361 28 -173 51 -323 51 -333 0 -14 -8 -17 -57 -14 l-58 3 -8 63 -9 62 -78
0 -78 0 -7 -65 -7 -65 -54 0 c-30 0 -54 2 -54 4 0 2 27 171 60 376 33 205 60
374 60 377 0 2 39 2 87 1 l88 -3 7 -45z m451 28 c3 -13 22 -129 43 -258 21
-129 40 -238 44 -243 3 -4 24 112 45 258 l39 265 83 0 83 0 0 -380 0 -380 -55
0 -55 0 -1 263 c-1 295 -2 294 -52 -38 l-33 -220 -56 -3 -56 -3 -11 68 c-7 37
-27 156 -45 263 l-34 195 -1 -262 -1 -263 -50 0 -50 0 0 380 0 380 79 0 c73 0
79 -2 84 -22z m-2527 -441 c31 -28 37 -42 41 -83 7 -68 -15 -110 -70 -135 -54
-24 -71 -24 -123 1 -90 44 -100 165 -18 229 20 15 41 21 80 21 47 0 59 -4 90
-33z m-131 -298 c55 -17 78 -31 120 -72 58 -59 70 -92 84 -233 9 -104 26 -138
77 -154 19 -6 34 -18 34 -26 0 -12 -44 -14 -275 -14 -221 0 -275 3 -275 13 0
7 14 20 32 28 65 29 87 116 88 347 l0 132 24 0 c13 0 54 -9 91 -21z m1473
-161 c18 -24 23 -72 9 -99 -12 -22 -12 -29 -1 -44 20 -26 18 -95 -1 -95 -11 0
-15 11 -15 43 0 46 -13 67 -42 67 -15 0 -18 -9 -18 -55 0 -30 -4 -55 -10 -55
-6 0 -10 48 -10 125 l0 125 39 0 c21 0 43 -6 49 -12z m382 -113 c0 -104 -2
-125 -15 -125 -13 0 -15 21 -15 125 0 104 2 125 15 125 13 0 15 -21 15 -125z
m431 109 c16 -20 17 -86 1 -92 -9 -3 -8 -9 3 -25 17 -25 20 -70 5 -98 -8 -14
-21 -19 -55 -19 l-45 0 0 125 0 125 39 0 c23 0 44 -6 52 -16z m499 1 c0 -10
-11 -15 -35 -15 -34 0 -35 -1 -35 -40 0 -38 2 -40 30 -40 20 0 30 -5 30 -15 0
-10 -10 -15 -30 -15 -29 0 -30 -2 -30 -45 0 -45 0 -45 35 -45 19 0 35 -4 35
-10 0 -5 -22 -10 -50 -10 l-50 0 0 125 0 125 50 0 c38 0 50 -4 50 -15z m350
-110 c0 -77 -4 -125 -10 -125 -6 0 -10 48 -10 125 0 77 4 125 10 125 6 0 10
-48 10 -125z m438 112 c20 -23 24 -65 10 -94 -11 -23 -11 -32 -1 -53 18 -36
17 -90 -2 -90 -11 0 -15 12 -15 45 0 34 -5 47 -19 55 -35 18 -41 12 -41 -45 0
-30 -4 -55 -10 -55 -6 0 -10 48 -10 125 l0 125 39 0 c21 0 43 -6 49 -13z m508
-12 c13 -19 15 -44 13 -115 -4 -98 -11 -110 -60 -110 -44 0 -54 23 -54 127 0
82 3 96 19 109 30 21 63 17 82 -11z" fill="#FFDB6E"/>
<path d="M3571 1302 c-19 -9 -44 -30 -55 -45 -20 -27 -21 -44 -24 -293 -3
-246 -2 -267 17 -309 16 -36 29 -50 63 -65 83 -38 183 -14 223 52 18 30 20 55
23 293 3 254 2 261 -20 305 -28 55 -73 80 -143 80 -28 0 -65 -8 -84 -18z m144
-85 c12 -18 15 -68 15 -274 0 -240 -1 -254 -20 -273 -12 -12 -33 -20 -55 -20
-22 0 -43 8 -55 20 -19 19 -20 33 -20 278 0 141 4 263 9 270 10 16 59 30 89
24 12 -2 29 -14 37 -25z"/>
<path d="M3622 1198 c-9 -9 -12 -78 -12 -249 0 -203 2 -240 16 -253 8 -9 22
-16 29 -16 7 0 21 7 29 16 14 13 16 50 16 245 0 140 -4 238 -10 250 -12 21
-50 25 -68 7z"/>
<path d="M4040 945 l0 -365 40 0 40 0 0 275 c0 236 2 275 15 275 8 0 17 -10
20 -22 3 -13 36 -135 74 -273 l68 -250 46 -3 47 -3 0 365 0 366 -35 0 -35 0 0
-224 c0 -314 -11 -314 -95 2 l-59 222 -63 0 -63 0 0 -365z"/>
<path d="M1782 1103 l3 -118 36 -3 c24 -2 43 3 60 17 22 18 24 26 24 106 0
101 -10 115 -82 115 l-44 0 3 -117z"/>
<path d="M2386 1160 c-3 -14 -15 -88 -26 -165 -11 -77 -23 -150 -25 -162 -5
-22 -2 -23 55 -23 l60 0 -6 38 c-3 20 -16 105 -28 187 -15 99 -25 142 -30 125z"/>
<path d="M1690 345 c0 -45 1 -46 28 -43 24 3 27 7 27 43 0 36 -3 40 -27 43
-27 3 -28 2 -28 -43z"/>
<path d="M2500 350 c0 -39 1 -41 28 -38 24 3 27 7 27 38 0 31 -3 35 -27 38
-27 3 -28 1 -28 -38z"/>
<path d="M2507 283 c-4 -3 -7 -26 -7 -50 0 -39 2 -43 25 -43 29 0 49 31 39 63
-10 32 -40 48 -57 30z"/>
<path d="M3790 345 c0 -45 1 -46 28 -43 24 3 27 7 27 43 0 36 -3 40 -27 43
-27 3 -28 2 -28 -43z"/>
<path d="M4301 386 c-8 -9 -11 -46 -9 -103 3 -86 3 -88 28 -88 25 0 25 2 28
88 3 83 -5 117 -28 117 -4 0 -13 -6 -19 -14z"/>
</g>
</svg>
