<svg xmlns:mydata="http://www.w3.org/2000/svg" mydata:contrastcolor="75787B" mydata:template="Contrast" mydata:presentation="2.5" mydata:layouttype="undefined" mydata:specialfontid="undefined" mydata:id1="240" mydata:id2="037" mydata:companyname="Ramon Ribeiro" mydata:companytagline="" version="1.1" xmlns="http://www.w3.org/2000/svg" xmlns:xlink="http://www.w3.org/1999/xlink" viewBox="0 45 550 380"><g fill="#101820" fill-rule="nonzero" stroke="none" stroke-width="1" stroke-linecap="butt" stroke-linejoin="miter" stroke-miterlimit="10" stroke-dasharray="" stroke-dashoffset="0" font-family="none" font-weight="none" font-size="none" text-anchor="none" style="mix-blend-mode: normal"><g data-paper-data="{&quot;isGlobalGroup&quot;:true,&quot;bounds&quot;:{&quot;x&quot;:65.00000000000003,&quot;y&quot;:194.19786690637045,&quot;width&quot;:420,&quot;height&quot;:81.6042661872591}}"><g data-paper-data="{&quot;isSecondaryText&quot;:true}"><path d="M212.41968,268.80513v6.77164h-2.11412v-15.61447h5.65555c1.7099,0 3.01558,0.37918 3.91703,1.13755c0.90145,0.75837 1.35218,1.86014 1.35218,3.30533c0,0.80129 -0.20927,1.49885 -0.6278,2.09266c-0.41853,0.59381 -1.02844,1.06601 -1.82974,1.41657c0.85853,0.27902 1.47559,0.73154 1.8512,1.35755c0.37561,0.62601 0.56341,1.40047 0.56341,2.32339v1.47023c0,0.4865 0.05366,0.92292 0.16097,1.30925c0.10732,0.38634 0.29333,0.70113 0.55804,0.94438v0.25756h-2.17851c-0.27902,-0.24325 -0.45788,-0.60097 -0.53658,-1.07316c-0.0787,-0.47219 -0.11805,-0.95869 -0.11805,-1.4595v-1.4273c0,-0.84422 -0.24683,-1.52389 -0.74048,-2.039c-0.49365,-0.51512 -1.15544,-0.77267 -1.98535,-0.77267zM212.41968,267.14174h3.32679c1.19478,0 2.0551,-0.22715 2.58095,-0.68146c0.52585,-0.4543 0.78877,-1.14649 0.78877,-2.07656c0,-0.87999 -0.25577,-1.56145 -0.76731,-2.04437c-0.51154,-0.48292 -1.30747,-0.72438 -2.38778,-0.72438h-3.54143z" data-paper-data="{&quot;glyphName&quot;:&quot;R&quot;,&quot;glyphIndex&quot;:0,&quot;firstGlyphOfWord&quot;:true,&quot;word&quot;:1}"></path><path d="M253.84146,275.57677h-2.12486v-15.6252h2.12486z" data-paper-data="{&quot;glyphName&quot;:&quot;I&quot;,&quot;glyphIndex&quot;:1,&quot;word&quot;:1}"></path><path d="M285.44891,275.57677v-15.6252h5.09751c1.6312,0 2.90826,0.35235 3.83118,1.05706c0.92292,0.70471 1.38438,1.76177 1.38438,3.17119c0,0.69398 -0.22179,1.31462 -0.66536,1.86193c-0.44357,0.54731 -1.02666,0.95332 -1.74925,1.21804c0.94438,0.20032 1.68665,0.66178 2.22681,1.38438c0.54016,0.72259 0.81024,1.56324 0.81024,2.52192c0,1.43088 -0.46325,2.52371 -1.38974,3.2785c-0.92649,0.75479 -2.18388,1.13218 -3.77216,1.13218zM287.56304,268.24709v5.67701h3.65947c0.95869,0 1.70632,-0.23788 2.2429,-0.71365c0.53658,-0.47577 0.80487,-1.15007 0.80487,-2.02291c0,-0.91576 -0.22357,-1.63478 -0.67072,-2.15705c-0.44715,-0.52227 -1.13576,-0.78341 -2.06583,-0.78341zM287.56304,266.59442h3.42338c0.78698,0 1.4273,-0.21642 1.92096,-0.64926c0.49365,-0.43284 0.74048,-1.0356 0.74048,-1.80827c0,-0.84422 -0.2665,-1.47559 -0.7995,-1.89413c-0.533,-0.41853 -1.30031,-0.6278 -2.30193,-0.6278h-2.98338z" data-paper-data="{&quot;glyphName&quot;:&quot;B&quot;,&quot;glyphIndex&quot;:2,&quot;word&quot;:1}"></path><path d="M341.3609,268.33294h-7.15797v5.59116h8.2526v1.65267h-10.36672v-15.6252h10.24867v1.6634h-8.13455v5.05458h7.15797z" data-paper-data="{&quot;glyphName&quot;:&quot;E&quot;,&quot;glyphIndex&quot;:3,&quot;word&quot;:1}"></path><path d="M372.22767,275.57677h-2.12486v-15.6252h2.12486z" data-paper-data="{&quot;glyphName&quot;:&quot;I&quot;,&quot;glyphIndex&quot;:4,&quot;word&quot;:1}"></path><path d="M406.45733,268.80513v6.77164h-2.11412v-15.61447h5.65555c1.7099,0 3.01558,0.37918 3.91703,1.13755c0.90145,0.75837 1.35218,1.86014 1.35218,3.30533c0,0.80129 -0.20927,1.49885 -0.6278,2.09266c-0.41853,0.59381 -1.02844,1.06601 -1.82974,1.41657c0.85853,0.27902 1.47559,0.73154 1.8512,1.35755c0.37561,0.62601 0.56341,1.40047 0.56341,2.32339v1.47023c0,0.4865 0.05366,0.92292 0.16097,1.30925c0.10732,0.38634 0.29333,0.70113 0.55804,0.94438v0.25756h-2.17851c-0.27902,-0.24325 -0.45788,-0.60097 -0.53658,-1.07316c-0.0787,-0.47219 -0.11805,-0.95869 -0.11805,-1.4595v-1.4273c0,-0.84422 -0.24683,-1.52389 -0.74048,-2.039c-0.49365,-0.51512 -1.15544,-0.77267 -1.98535,-0.77267zM406.45733,267.14174h3.32679c1.19478,0 2.0551,-0.22715 2.58095,-0.68146c0.52585,-0.4543 0.78877,-1.14649 0.78877,-2.07656c0,-0.87999 -0.25577,-1.56145 -0.76731,-2.04437c-0.51154,-0.48292 -1.30747,-0.72438 -2.38778,-0.72438h-3.54143z" data-paper-data="{&quot;glyphName&quot;:&quot;R&quot;,&quot;glyphIndex&quot;:5,&quot;word&quot;:1}"></path><path d="M464.16852,269.15928c0,1.91022 -0.59203,3.49492 -1.77608,4.7541c-1.18405,1.25917 -2.72046,1.88876 -4.60922,1.88876c-1.82437,0 -3.30712,-0.62959 -4.44825,-1.88876c-1.14113,-1.25917 -1.71169,-2.84387 -1.71169,-4.7541v-2.77948c0,-1.90307 0.57056,-3.48777 1.71169,-4.7541c1.14113,-1.26633 2.62387,-1.89949 4.44825,-1.89949c1.88876,0 3.42517,0.63138 4.60922,1.89413c1.18405,1.26275 1.77608,2.84924 1.77608,4.75946zM462.05439,266.35833c0,-1.43088 -0.38634,-2.6042 -1.15901,-3.51996c-0.77267,-0.91576 -1.81006,-1.37364 -3.11216,-1.37364c-1.23056,0 -2.2125,0.45788 -2.94582,1.37364c-0.73333,0.91576 -1.09999,2.08908 -1.09999,3.51996v2.80095c0,1.44519 0.36666,2.62566 1.09999,3.54143c0.73333,0.91576 1.71527,1.37364 2.94582,1.37364c1.30925,0 2.34843,-0.45609 3.11753,-1.36828c0.7691,-0.91219 1.15365,-2.09445 1.15365,-3.54679z" data-paper-data="{&quot;glyphName&quot;:&quot;O&quot;,&quot;glyphIndex&quot;:6,&quot;lastGlyphOfWord&quot;:true,&quot;word&quot;:1}"></path></g><g data-paper-data="{&quot;isPrimaryText&quot;:true}"><path d="M222.23054,230.22474l-11.75702,18.5593h14.69628l11.42111,-17.3836c2.26743,0 4.28292,0 6.21443,0v17.3836h13.10068v-54.58618h-13.10068v0c-1.5956,0 -5.29066,0 -13.10068,0c-13.4366,0 -19.39909,10.32938 -19.39909,18.72726c0,6.13045 3.27517,14.27639 11.92498,17.29962zM242.80533,219.64342h-12.93273c-1.76355,0 -3.19119,-0.25194 -4.28292,-0.75581c-0.83979,-0.33591 -1.42764,-0.75581 -1.93151,-1.42764c-1.1757,-1.42764 -1.5956,-3.35915 -1.5956,-4.53485c0,-1.34366 0.41989,-3.27517 1.76355,-4.78679c1.25968,-1.42764 3.19119,-2.18345 5.87851,-2.18345h13.10068z" data-paper-data="{&quot;glyphName&quot;:&quot;Я&quot;,&quot;glyphIndex&quot;:0,&quot;firstGlyphOfWord&quot;:true,&quot;word&quot;:1}"></path><path d="M302.85012,248.78405h15.11617l-29.30858,-54.58618v0v0v0v0l-29.39256,54.58618h15.11617l3.947,-7.64206h20.57479zM283.61899,230.89657l5.03872,-9.57358l4.95475,9.57358z" data-paper-data="{&quot;glyphName&quot;:&quot;A&quot;,&quot;glyphIndex&quot;:1,&quot;word&quot;:1}"></path><path d="M350.29811,212.92513l-28.97266,-18.72726v54.58618h13.10068v-30.48428l15.70402,10.24541l16.2079,-10.32938v30.56826h13.10068v-54.58618z" data-paper-data="{&quot;glyphName&quot;:&quot;M&quot;,&quot;glyphIndex&quot;:2,&quot;word&quot;:1}"></path><path d="M411.35065,194.4498c-15.53607,0 -28.13288,12.59681 -28.13288,28.13288c0,15.53607 12.59681,28.13288 28.13288,28.13288c15.53607,0 28.13288,-12.59681 28.13288,-28.13288c0,-15.53607 -12.59681,-28.13288 -28.13288,-28.13288zM422.93971,234.17175c-3.10721,3.02323 -7.22217,4.78679 -11.58907,4.78679c-4.36689,0 -8.48185,-1.76355 -11.58907,-4.78679c-3.10721,-3.10721 -4.78679,-7.22217 -4.78679,-11.58907c0,-4.36689 1.67957,-8.48185 4.78679,-11.58907c3.10721,-3.10721 7.22217,-4.78679 11.58907,-4.78679c4.36689,0 8.48185,1.67957 11.58907,4.78679c3.10721,3.10721 4.78679,7.22217 4.78679,11.58907c0,4.36689 -1.67957,8.48185 -4.78679,11.58907z" data-paper-data="{&quot;glyphName&quot;:&quot;O&quot;,&quot;glyphIndex&quot;:3,&quot;word&quot;:1}"></path><path d="M485,248.78405v-54.58618l-29.47654,25.10964v-25.10964h-13.10068v54.58618l29.47654,-24.68975v24.68975z" data-paper-data="{&quot;glyphName&quot;:&quot;И&quot;,&quot;glyphIndex&quot;:4,&quot;lastGlyphOfWord&quot;:true,&quot;word&quot;:1}"></path></g><g data-paper-data="{&quot;initialText&quot;:&quot;R&quot;,&quot;blockLetter&quot;:&quot;R&quot;,&quot;blockLetterId&quot;:289,&quot;fillRule&quot;:&quot;nonzero&quot;,&quot;selectedEffects&quot;:{&quot;container&quot;:&quot;block-letter-extended2-outline-thick-R-289&quot;,&quot;transformation&quot;:&quot;&quot;,&quot;pattern&quot;:&quot;&quot;},&quot;relativeBoundsIconToContainer&quot;:{&quot;top&quot;:0.023912716501360273,&quot;left&quot;:-0.016472266631289437},&quot;widthRatioIconToContainer&quot;:0.6227002274121886,&quot;heightRatioIconToContainer&quot;:0.7339399359968153,&quot;bounds&quot;:{&quot;x&quot;:65.00000000000003,&quot;y&quot;:194.19786690637045,&quot;width&quot;:101.11235826240949,&quot;height&quot;:81.6042661872591},&quot;isIcon&quot;:&quot;true&quot;,&quot;iconType&quot;:&quot;initial&quot;,&quot;iconStyle&quot;:&quot;standalone&quot;,&quot;rawInitialId&quot;:727,&quot;suitableAsStandaloneIcon&quot;:true}"><path d="M133.23225,240.12029c3.0802,0.13858 11.97042,8.47771 11.97042,19.09174v7.68566h-7.73159v-7.68566c0,-7.52413 -8.18656,-14.41037 -10.9799,-15.20006c-5.09315,1.64517 -20.24885,5.4341 -36.14404,3.16192v19.72381h-7.93786v-59.89263h7.93786v0.00467c48.01795,0 55.02483,7.19993 55.02483,18.25767c0,8.65009 -10.17731,13.98221 -12.13972,14.85288zM137.49131,225.26702c0,-9.61184 -18.17593,-10.25753 -47.14457,-10.25753v24.38067c27.68775,3.07901 47.14457,-6.65699 47.14457,-14.12313zM165.00088,268.15218c1.16121,1.58316 1.41254,3.11172 0.75399,4.58568c-0.66445,1.48709 -1.99545,2.33051 -3.99297,2.53026c-3.20212,0.30498 -7.82251,0.45608 -13.86116,0.45333l-55.8304,0.07987l-0.57113,0.00081c-5.23559,0.00001 -9.12131,-0.18007 -11.65715,-0.54023c-2.89508,-0.34852 -4.34262,-2.00098 -4.34262,-4.9574v-54.48056h-5.52677c-2.62889,0 -4.14539,-1.11141 -4.54953,-3.33424c-0.28209,-1.69173 -0.42314,-4.16279 -0.42314,-7.41317c0,-3.1629 0.13951,-5.58142 0.41853,-7.25558c0.4072,-2.2404 1.92525,-3.3606 4.55414,-3.3606h7.34963l35.46405,-0.25647l5.21933,-0.00602c15.10393,0 25.90858,1.75144 32.41395,5.25433c7.69342,4.14262 11.54013,11.44213 11.54013,21.89851c0,10.757 -5.17456,18.20813 -15.52369,22.35338zM118.00984,197.84359l-5.19713,0.0058l-35.49041,0.25669h-7.34963c-0.60051,0 -0.91986,0.10474 -0.95809,0.31422c-0.24595,1.47568 -0.36892,3.69443 -0.36892,6.65623c0,3.0493 0.12144,5.303 0.36432,6.76112c0.04129,0.22705 0.36219,0.34058 0.96269,0.34058h6.0372c2.09019,0 3.1353,1.0451 3.1353,3.1353v54.99099c0,0.8031 0.38206,1.2496 1.14619,1.3395c0.01502,0.00176 0.02997,0.0037 0.04484,0.00583c2.36435,0.33777 6.08361,0.50666 11.15777,0.50666l0.57113,-0.00082l55.8374,-0.07988c5.92258,0.0027 10.42149,-0.14237 13.49675,-0.43524c0.59519,-0.05952 0.93755,-0.18948 1.02709,-0.3899c0.08239,-0.1843 -0.02719,-0.48221 -0.32877,-0.89374l-18.63656,-24.54255c-0.01079,-0.01415 -0.02132,-0.02844 -0.03161,-0.04287c-0.65359,-0.91499 -0.95115,-1.7817 -0.89268,-2.60015c0.09158,-1.28254 0.87959,-2.20926 2.36402,-2.78018c8.9422,-3.52272 13.4133,-9.86954 13.4133,-19.04047c0,-9.00468 -3.20763,-15.23419 -9.62288,-18.68852c-5.96582,-3.2124 -16.19292,-4.8186 -30.68132,-4.8186z" data-paper-data="{&quot;isPathIcon&quot;:true}"></path></g><path d="M183.78964,275.80213v-81.60427h2.71156v81.60427z" data-paper-data="{&quot;isShapeTextSeparator&quot;:true}"></path></g></g><g class="watermark-group" style="opacity:0.040000010281801224"><path class="watermark-path" d="M129.52,370.3a11.88,11.88,0,0,1,2.58,5.58,12,12,0,0,1,.11,3,11.81,11.81,0,0,1-.64,2.93,12.34,12.34,0,0,1-1.41,2.72,11.65,11.65,0,0,1-2.13,2.32,12,12,0,0,1-2.64,1.69,13,13,0,0,1-2.91.9,12.47,12.47,0,0,1-3,.12,12.17,12.17,0,0,1-2.93-.64,11.8,11.8,0,0,1-2.72-1.38,12.19,12.19,0,0,1-4-4.79,11.85,11.85,0,0,1-.89-2.92,12.14,12.14,0,0,1-.13-3,11.54,11.54,0,0,1,.64-2.92,11.67,11.67,0,0,1,3.5-5,11.44,11.44,0,0,1,2.67-1.69,11.64,11.64,0,0,1,2.92-.91,10.71,10.71,0,0,1,3-.12,11.68,11.68,0,0,1,5.66,2,11.7,11.7,0,0,1,2.34,2.12m-1.4,8.76a13,13,0,0,1-1.22,2.32,9.68,9.68,0,0,1-1.81,2,7.44,7.44,0,0,1-2.38,1.37,6.17,6.17,0,0,1-5.11-.46,8.73,8.73,0,0,1-3.85-4.58,6.69,6.69,0,0,1-.34-2.66,6.09,6.09,0,0,1,.77-2.47,7.15,7.15,0,0,1,1.75-2.11,9.58,9.58,0,0,1,1.09-.81,8.23,8.23,0,0,1,1.12-.63,8.14,8.14,0,0,1,1.19-.46,12.71,12.71,0,0,1,1.32-.37l2,2.38a12.83,12.83,0,0,0-1.56.17,7.86,7.86,0,0,0-1.23.32,4.5,4.5,0,0,0-1,.49,6.41,6.41,0,0,0-.93.67,4.49,4.49,0,0,0-1.15,1.39,3.87,3.87,0,0,0-.45,1.58,4.12,4.12,0,0,0,.26,1.63,6.11,6.11,0,0,0,2.36,2.82,4.43,4.43,0,0,0,1.57.53,3.91,3.91,0,0,0,1.62-.17,4.71,4.71,0,0,0,1.57-.89,10.5,10.5,0,0,0,.83-.79,5.71,5.71,0,0,0,.65-.93,10.13,10.13,0,0,0,.54-1.14,12.24,12.24,0,0,0,.44-1.49l2,2.33m-14.46,4.55a8.86,8.86,0,0,0,2.78,2.22,9,9,0,0,0,3.29.94,9.15,9.15,0,0,0,3.39-.37,8.68,8.68,0,0,0,3.11-1.69,8.8,8.8,0,0,0,2.22-2.78,9.15,9.15,0,0,0,1-3.29,8.95,8.95,0,0,0-4.83-8.76,9,9,0,0,0-6.73-.57,9,9,0,0,0-5.33,4.47,8.94,8.94,0,0,0-.57,6.71,8.76,8.76,0,0,0,1.7,3.12"></path><path class="watermark-path" d="M147,349c-.48.12-1.09.31-1.82.57a24.37,24.37,0,0,0-2.4,1A28.35,28.35,0,0,0,140,352a20.72,20.72,0,0,0-2.71,1.94c-.7.59-1.28,1.11-1.74,1.57a15.07,15.07,0,0,0-1.1,1.22,4.09,4.09,0,0,0-.59.92,2.32,2.32,0,0,0-.22.64,1.16,1.16,0,0,0,0,.47,1.83,1.83,0,0,0,.18.29,1.15,1.15,0,0,0,1,.37,5.54,5.54,0,0,0,1.51-.38q.87-.35,1.95-.9l2.26-1.18q1.2-.65,2.49-1.29c.87-.44,1.73-.83,2.59-1.17a18.94,18.94,0,0,1,2.6-.81,9.27,9.27,0,0,1,2.46-.29,6.25,6.25,0,0,1,2.24.49,5.12,5.12,0,0,1,1.89,1.47,6.35,6.35,0,0,1,1.41,2.61,6,6,0,0,1,.09,2.6,8.3,8.3,0,0,1-.9,2.52,17.79,17.79,0,0,1-1.62,2.37,23.92,23.92,0,0,1-2,2.15c-.72.67-1.41,1.29-2.09,1.87a33.79,33.79,0,0,1-5.33,3.7,32.29,32.29,0,0,1-4.91,2.28l-3.61-4.3a21.38,21.38,0,0,0,5.39-1.87,27.2,27.2,0,0,0,5.4-3.56,21.59,21.59,0,0,0,2.38-2.27,8.67,8.67,0,0,0,1.18-1.7,2.32,2.32,0,0,0,.27-1.19,1.34,1.34,0,0,0-.28-.74,1.21,1.21,0,0,0-1-.42,4.32,4.32,0,0,0-1.55.34,15.77,15.77,0,0,0-2,.88c-.72.37-1.48.77-2.27,1.21l-2.45,1.3c-.85.45-1.7.85-2.56,1.21a22.37,22.37,0,0,1-2.54.86,10,10,0,0,1-2.43.32,5.76,5.76,0,0,1-2.2-.45,5,5,0,0,1-1.89-1.45,6.12,6.12,0,0,1-1.31-2.41,6,6,0,0,1-.1-2.41,8.28,8.28,0,0,1,.81-2.38,14.06,14.06,0,0,1,1.49-2.24,22.37,22.37,0,0,1,1.85-2.05q1-1,2-1.77c.7-.59,1.44-1.15,2.23-1.7s1.62-1.06,2.44-1.53,1.63-.91,2.43-1.3,1.58-.75,2.3-1L147,349"></path><path class="watermark-path" d="M186.76,337.57l-10.6-12.63,3.92,18.24-4.66,3.91-17.27-7,10.6,12.63-4.86,4.07-15.09-18,6.59-5.54,18.69,7.52-4.15-19.71,6.57-5.52,15.09,18-4.83,4.05"></path><path class="watermark-path" d="M208.84,313.24l-10,8.42,1.16,4.82L194.56,331l-5.68-25.89,5.42-4.55,24.51,10.09-5.42,4.55-4.55-2m-11.23,3.45,6.57-5.52-8.83-3.87,2.26,9.39"></path><path class="watermark-path" d="M227.49,281.38c-.48.12-1.09.31-1.82.57a24.37,24.37,0,0,0-2.4,1,26.11,26.11,0,0,0-2.7,1.47,20.72,20.72,0,0,0-2.71,1.94c-.7.59-1.28,1.11-1.74,1.57a13.39,13.39,0,0,0-1.1,1.22,4.29,4.29,0,0,0-.59.91,2.48,2.48,0,0,0-.22.65,1.16,1.16,0,0,0,0,.47,1.83,1.83,0,0,0,.18.29,1.15,1.15,0,0,0,1,.37,5.54,5.54,0,0,0,1.51-.38q.87-.34,2-.9l2.26-1.18q1.2-.64,2.49-1.29c.87-.44,1.73-.83,2.59-1.17a18.94,18.94,0,0,1,2.6-.81,9.27,9.27,0,0,1,2.46-.29,6.08,6.08,0,0,1,2.24.49,5.09,5.09,0,0,1,1.89,1.46,6.47,6.47,0,0,1,1.41,2.61,6.07,6.07,0,0,1,.09,2.61,8.3,8.3,0,0,1-.9,2.52,16.32,16.32,0,0,1-1.63,2.36,21.41,21.41,0,0,1-2,2.16c-.72.67-1.41,1.29-2.1,1.86a33.36,33.36,0,0,1-5.32,3.71,31.92,31.92,0,0,1-4.92,2.28l-3.6-4.3a21.38,21.38,0,0,0,5.39-1.87,27.2,27.2,0,0,0,5.4-3.56,21.59,21.59,0,0,0,2.38-2.27,8.67,8.67,0,0,0,1.18-1.7A2.32,2.32,0,0,0,231,293a1.34,1.34,0,0,0-.28-.74,1.21,1.21,0,0,0-1-.42,4.32,4.32,0,0,0-1.55.34,16.54,16.54,0,0,0-2,.88c-.71.37-1.47.77-2.26,1.21l-2.46,1.3c-.84.44-1.7.85-2.55,1.21a24.53,24.53,0,0,1-2.54.86A10,10,0,0,1,214,298a5.76,5.76,0,0,1-2.2-.45,5,5,0,0,1-1.89-1.45,6.12,6.12,0,0,1-1.31-2.41,5.78,5.78,0,0,1-.1-2.41,8,8,0,0,1,.81-2.38,14.61,14.61,0,0,1,1.49-2.25,22.26,22.26,0,0,1,1.85-2q1-1,2-1.77c.7-.59,1.44-1.15,2.23-1.7s1.62-1.06,2.44-1.53,1.63-.91,2.43-1.31,1.58-.74,2.3-1l3.5,4.16"></path><path class="watermark-path" d="M261.64,274.74l-6.29-7.5L243,277.61l6.3,7.5-4.86,4.07-15.09-18,4.85-4.08,5.49,6.55L252,263.3l-5.49-6.55,4.86-4.07,15.09,18-4.86,4.08"></path><path class="watermark-path" d="M272.18,265.9l-15.09-18,4.86-4.08,15.09,18-4.86,4.08"></path><path class="watermark-path" d="M299.65,242.85l-22.51-2.18L287.51,253l-4.85,4.08-15.1-18,5.28-4.43,22.56,2.22L285,224.5l4.83-4.06,15.09,18-5.26,4.42"></path><path class="watermark-path" d="M306.68,205.52a31.88,31.88,0,0,1,5.29-3.66,34.48,34.48,0,0,1,5.14-2.35l3.69,4.39a20.77,20.77,0,0,0-2.37.61,20.47,20.47,0,0,0-2.61,1,25.12,25.12,0,0,0-2.76,1.49,23.9,23.9,0,0,0-2.8,2,20.42,20.42,0,0,0-2.8,2.77,12.77,12.77,0,0,0-1.64,2.52,7,7,0,0,0-.68,2.24,6,6,0,0,0,.66,3.64,8.16,8.16,0,0,0,.94,1.38,9.12,9.12,0,0,0,1.08,1.07,6.39,6.39,0,0,0,1.47.91,6.73,6.73,0,0,0,1.88.48,6.54,6.54,0,0,0,2.28-.18,11.67,11.67,0,0,0,2.74-1.07,19.38,19.38,0,0,0,3.18-2.22c.57-.48,1.06-.92,1.46-1.31a14.57,14.57,0,0,0,1-1.13,11.46,11.46,0,0,0,.81-1.05l.74-1.09-1.82-2.17-5.45,4.57-3.31-3.94,10.31-8.65,7.71,9.19a29,29,0,0,1-1.67,2.43q-1,1.26-2.1,2.52c-.74.84-1.5,1.65-2.3,2.44s-1.58,1.5-2.33,2.14a31,31,0,0,1-3.59,2.61,22.55,22.55,0,0,1-3.64,1.83,15.64,15.64,0,0,1-3.63.89,10.72,10.72,0,0,1-3.49-.15,10.45,10.45,0,0,1-3.28-1.33,12.54,12.54,0,0,1-3-2.67,12,12,0,0,1-2.08-3.44,10.45,10.45,0,0,1-.71-3.5,11.14,11.14,0,0,1,.51-3.51,15.72,15.72,0,0,1,1.56-3.43,21.62,21.62,0,0,1,2.42-3.28,30.3,30.3,0,0,1,3.15-3"></path><path class="watermark-path" d="M336.91,211.59l-15.1-18,4.86-4.08,11.79,14,13.13-11,3.31,3.94-18,15.1"></path><path class="watermark-path" d="M374.54,164.71a12.28,12.28,0,0,1,2.59,4.81,10.44,10.44,0,0,1,0,5,14.62,14.62,0,0,1-2.33,5,25.55,25.55,0,0,1-4.56,4.85,26.07,26.07,0,0,1-5.6,3.67,14.79,14.79,0,0,1-5.38,1.43,10.43,10.43,0,0,1-4.94-.89,13.24,13.24,0,0,1-6.87-8.18,10.48,10.48,0,0,1,0-5,14.51,14.51,0,0,1,2.36-5,25.23,25.23,0,0,1,4.57-4.89,25,25,0,0,1,5.59-3.64,14.45,14.45,0,0,1,5.35-1.43,10.31,10.31,0,0,1,4.93.92,12.22,12.22,0,0,1,4.28,3.38m-4.91,4.11a8.36,8.36,0,0,0-2-1.72,5.5,5.5,0,0,0-2.65-.85,7.72,7.72,0,0,0-3.32.57,14.49,14.49,0,0,0-4,2.52,16.72,16.72,0,0,0-2.38,2.4,10.15,10.15,0,0,0-1.39,2.24,6.71,6.71,0,0,0-.56,2.1,5.69,5.69,0,0,0,.1,1.9,6.21,6.21,0,0,0,.61,1.69,9.85,9.85,0,0,0,1,1.44,10.48,10.48,0,0,0,1.26,1.23,6.67,6.67,0,0,0,1.57.92,6.1,6.1,0,0,0,1.85.41,6.8,6.8,0,0,0,2.15-.2,11.06,11.06,0,0,0,2.45-1,17.67,17.67,0,0,0,2.77-1.94,14.39,14.39,0,0,0,3.18-3.52,7.74,7.74,0,0,0,1.14-3.17,5.54,5.54,0,0,0-.37-2.74,8.52,8.52,0,0,0-1.36-2.3"></path><path class="watermark-path" d="M382.66,141.76A32.3,32.3,0,0,1,388,138.1a34.12,34.12,0,0,1,5.15-2.35l3.69,4.4a19.62,19.62,0,0,0-2.37.6,22.08,22.08,0,0,0-2.61,1,26,26,0,0,0-2.77,1.49,23.9,23.9,0,0,0-2.8,2,21,21,0,0,0-2.8,2.78,13.19,13.19,0,0,0-1.64,2.51,7.29,7.29,0,0,0-.68,2.24,6.36,6.36,0,0,0,.06,2,5.8,5.8,0,0,0,.61,1.68,8.12,8.12,0,0,0,.93,1.38,9.16,9.16,0,0,0,1.08,1.08,6.56,6.56,0,0,0,1.48.9,6,6,0,0,0,1.87.48,6.76,6.76,0,0,0,2.28-.17,12,12,0,0,0,2.74-1.08,18.57,18.57,0,0,0,3.18-2.22c.58-.48,1.06-.92,1.46-1.31s.75-.77,1.05-1.12.57-.72.81-1.06l.73-1.09-1.82-2.17-5.45,4.57-3.3-3.94,10.3-8.65,7.71,9.19a29,29,0,0,1-1.67,2.43q-1,1.26-2.1,2.52c-.73.84-1.5,1.66-2.3,2.44s-1.57,1.5-2.33,2.14a31,31,0,0,1-3.59,2.61,22.15,22.15,0,0,1-3.64,1.83,15.56,15.56,0,0,1-3.62.89,11,11,0,0,1-3.49-.14,10.84,10.84,0,0,1-3.28-1.33,12.82,12.82,0,0,1-3-2.68,12.12,12.12,0,0,1-2.08-3.43A10.71,10.71,0,0,1,375,155a11.18,11.18,0,0,1,.51-3.51,15.51,15.51,0,0,1,1.57-3.43,21.44,21.44,0,0,1,2.42-3.28,30.19,30.19,0,0,1,3.14-3"></path><path class="watermark-path" d="M428.63,119.31a12.26,12.26,0,0,1,2.59,4.82,10.44,10.44,0,0,1,0,5,14.53,14.53,0,0,1-2.34,5,25.29,25.29,0,0,1-4.56,4.86,26,26,0,0,1-5.59,3.67,14.84,14.84,0,0,1-5.38,1.43,10.61,10.61,0,0,1-4.95-.89,12.15,12.15,0,0,1-4.3-3.37,12,12,0,0,1-2.56-4.81,10.48,10.48,0,0,1,0-5,14.39,14.39,0,0,1,2.35-5,27.89,27.89,0,0,1,10.16-8.53,14.49,14.49,0,0,1,5.36-1.43,10.27,10.27,0,0,1,4.92.92,12.21,12.21,0,0,1,4.28,3.37m-4.91,4.12a8.17,8.17,0,0,0-2-1.72,5.58,5.58,0,0,0-2.65-.86,7.86,7.86,0,0,0-3.31.58,14.49,14.49,0,0,0-4,2.52,16.21,16.21,0,0,0-2.38,2.4,9.85,9.85,0,0,0-1.4,2.24,7,7,0,0,0-.56,2.1,6,6,0,0,0,.1,1.9,6.23,6.23,0,0,0,.62,1.69,8.49,8.49,0,0,0,1,1.44,9.18,9.18,0,0,0,1.26,1.23,6.67,6.67,0,0,0,1.57.92,6,6,0,0,0,1.84.41,6.86,6.86,0,0,0,2.16-.2,11.26,11.26,0,0,0,2.45-1,17.62,17.62,0,0,0,2.76-1.94,14.67,14.67,0,0,0,3.19-3.52,7.71,7.71,0,0,0,1.13-3.17,5.53,5.53,0,0,0-.36-2.74,8.55,8.55,0,0,0-1.37-2.3"></path></g></svg>