<svg xmlns:mydata="http://www.w3.org/2000/svg" mydata:contrastcolor="11111f" mydata:template="Contrast" mydata:presentation="2.5" mydata:layouttype="undefined" mydata:specialfontid="undefined" mydata:id1="031" mydata:id2="062" mydata:companyname="Ramon Ribeiro" mydata:companytagline="" version="1.1" xmlns="http://www.w3.org/2000/svg" xmlns:xlink="http://www.w3.org/1999/xlink" viewBox="0 45 550 380"><g fill="#a7a8aa" fill-rule="nonzero" stroke="none" stroke-width="1" stroke-linecap="butt" stroke-linejoin="miter" stroke-miterlimit="10" stroke-dasharray="" stroke-dashoffset="0" font-family="none" font-weight="none" font-size="none" text-anchor="none" style="mix-blend-mode: normal"><g data-paper-data="{&quot;isGlobalGroup&quot;:true,&quot;bounds&quot;:{&quot;x&quot;:157.87144484309266,&quot;y&quot;:115,&quot;width&quot;:234.25711031381474,&quot;height&quot;:239.99999999999994}}"><g data-paper-data="{&quot;stacked&quot;:true,&quot;isPrimaryText&quot;:true}"><path d="M181.79453,295.10109v13.28671h-6.35147v-34.13914h8.31295c3.51822,0 6.11407,0.83285 7.78755,2.49856c1.67349,1.6657 2.51023,4.21096 2.51023,7.63577c0,4.31215 -1.45554,7.32443 -4.36663,9.03683l6.56163,14.96798h-6.79514l-5.39408,-13.28671zM181.79453,289.63696h1.63457c1.49446,0 2.56861,-0.42421 3.22244,-1.27263c0.65383,-0.84842 0.98074,-2.11326 0.98074,-3.79454c0,-1.74354 -0.34637,-2.98503 -1.03912,-3.72448c-0.69275,-0.73945 -1.763,-1.10917 -3.21076,-1.10917h-1.58787z" data-paper-data="{&quot;glyphName&quot;:&quot;R&quot;,&quot;glyphIndex&quot;:0,&quot;firstGlyphOfWord&quot;:true,&quot;word&quot;:1,&quot;line&quot;:1,&quot;firstGlyphOfFirstLine&quot;:true}"></path><path d="M230.45799,308.3878l-1.96148,-8.61651h-8.89673l-1.96148,8.61651h-6.35147l8.45306,-34.27925h8.61651l8.47641,34.27925zM227.30561,294.1437l-1.82138,-7.93934c-0.10897,-0.48259 -0.35416,-1.69295 -0.73556,-3.63108c-0.3814,-1.93813 -0.61102,-3.23411 -0.68885,-3.88794c-0.20238,1.33879 -0.45924,2.81379 -0.77058,4.42501c-0.31135,1.61122 -1.12085,5.289 -2.4285,11.03334z" data-paper-data="{&quot;glyphName&quot;:&quot;A&quot;,&quot;glyphIndex&quot;:1,&quot;word&quot;:1,&quot;line&quot;:1}"></path><path d="M266.97894,308.3878l-6.49157,-29.07198h-0.25686c0.29578,2.24169 0.44367,4.29658 0.44367,6.16466v22.90732h-5.88445v-34.13914h9.76071l5.83775,26.83029h0.18681l5.79104,-26.83029h9.90082v34.13914h-6.02455v-23.14083c0,-1.91478 0.10897,-3.87626 0.32691,-5.88445h-0.18681l-6.46822,29.02528z" data-paper-data="{&quot;glyphName&quot;:&quot;M&quot;,&quot;glyphIndex&quot;:2,&quot;word&quot;:1,&quot;line&quot;:1}"></path><path d="M330.72713,291.27153c0,5.65094 -1.05858,9.99422 -3.17573,13.02985c-2.11716,3.03563 -5.145,4.55344 -9.08353,4.55344c-3.9541,0 -6.98973,-1.51392 -9.10689,-4.54177c-2.11716,-3.02784 -3.17573,-7.39059 -3.17573,-13.08823c0,-5.65094 1.05858,-9.98255 3.17573,-12.99482c2.11716,-3.01228 5.16835,-4.51842 9.15359,-4.51842c3.93853,0 6.95859,1.51392 9.06018,4.54177c2.10159,3.02784 3.15238,7.36724 3.15238,13.01818zM312.67682,291.27153c0,3.89183 0.49037,6.85741 1.47111,8.89673c0.98074,2.03932 2.42072,3.05898 4.31993,3.05898c3.82956,0 5.74434,-3.98524 5.74434,-11.95571c0,-7.97047 -1.89921,-11.95571 -5.69764,-11.95571c-1.93035,0 -3.38589,1.01577 -4.36663,3.0473c-0.98074,2.03154 -1.47111,5.001 -1.47111,8.9084z" data-paper-data="{&quot;glyphName&quot;:&quot;O&quot;,&quot;glyphIndex&quot;:3,&quot;word&quot;:1,&quot;line&quot;:1}"></path><path d="M374.55694,308.3878h-7.75253l-10.55465,-24.7287h-0.30356c0.38918,1.88365 0.58377,3.9074 0.58377,6.07126v18.65744h-5.88445v-34.13914h7.79923l10.46124,24.47184h0.25686c-0.29578,-1.63457 -0.44367,-3.58048 -0.44367,-5.83775v-18.63409h5.83775z" data-paper-data="{&quot;glyphName&quot;:&quot;N&quot;,&quot;glyphIndex&quot;:4,&quot;lastGlyphOfWord&quot;:true,&quot;word&quot;:1,&quot;line&quot;:1,&quot;lastGlyphOfFirstLine&quot;:true}"></path><path d="M164.22291,341.24627v13.28671h-6.35147v-34.13914h8.31295c3.51822,0 6.11407,0.83285 7.78755,2.49856c1.67349,1.6657 2.51023,4.21096 2.51023,7.63577c0,4.31215 -1.45554,7.32443 -4.36663,9.03683l6.56163,14.96798h-6.79514l-5.39408,-13.28671zM164.22291,335.78214h1.63457c1.49446,0 2.56861,-0.42421 3.22244,-1.27263c0.65383,-0.84842 0.98074,-2.11326 0.98074,-3.79454c0,-1.74354 -0.34637,-2.98503 -1.03912,-3.72448c-0.69275,-0.73945 -1.763,-1.10917 -3.21076,-1.10917h-1.58787z" data-paper-data="{&quot;glyphName&quot;:&quot;R&quot;,&quot;glyphIndex&quot;:5,&quot;firstGlyphOfWord&quot;:true,&quot;word&quot;:2,&quot;line&quot;:2,&quot;firstGlyphOfSecondLine&quot;:true}"></path><path d="M197.87169,354.53298v-34.13914h5.97785v34.13914z" data-paper-data="{&quot;glyphName&quot;:&quot;I&quot;,&quot;glyphIndex&quot;:6,&quot;word&quot;:2,&quot;line&quot;:2}"></path><path d="M226.00963,320.39384h8.70992c3.54935,0 6.13353,0.68885 7.75253,2.06656c1.619,1.37771 2.4285,3.56881 2.4285,6.5733c0,1.97705 -0.4281,3.63108 -1.2843,4.96208c-0.8562,1.33101 -2.02375,2.13662 -3.50265,2.41683v0.23351c1.93035,0.48259 3.32362,1.38549 4.17983,2.70871c0.8562,1.32322 1.2843,3.08233 1.2843,5.27732c0,3.0979 -0.82896,5.52251 -2.48688,7.27383c-1.65792,1.75132 -3.92686,2.62699 -6.80681,2.62699h-10.27443zM231.98748,334.12422h2.91887c1.33879,0 2.28061,-0.35805 2.82547,-1.07415c0.54486,-0.7161 0.81728,-1.78246 0.81728,-3.19909c0,-1.41663 -0.31135,-2.43239 -0.93404,-3.0473c-0.62269,-0.61491 -1.60343,-0.92236 -2.94222,-0.92236h-2.68536zM231.98748,339.42489v9.55055h3.19909c1.32322,0 2.30786,-0.40475 2.9539,-1.21425c0.64604,-0.8095 0.96907,-2.06267 0.96907,-3.75951c0,-3.0512 -1.33879,-4.57679 -4.01637,-4.57679z" data-paper-data="{&quot;glyphName&quot;:&quot;B&quot;,&quot;glyphIndex&quot;:7,&quot;word&quot;:2,&quot;line&quot;:2}"></path><path d="M280.58089,354.53298h-15.3883v-34.13914h15.3883v5.48748h-9.03683v8.12614h8.383v5.51083h-8.383v9.45715h9.03683z" data-paper-data="{&quot;glyphName&quot;:&quot;E&quot;,&quot;glyphIndex&quot;:8,&quot;word&quot;:2,&quot;line&quot;:2}"></path><path d="M301.64348,354.53298v-34.13914h5.97785v34.13914z" data-paper-data="{&quot;glyphName&quot;:&quot;I&quot;,&quot;glyphIndex&quot;:9,&quot;word&quot;:2,&quot;line&quot;:2}"></path><path d="M336.13289,341.24627v13.28671h-6.35147v-34.13914h8.31295c3.51822,0 6.11407,0.83285 7.78755,2.49856c1.67349,1.6657 2.51023,4.21096 2.51023,7.63577c0,4.31215 -1.45554,7.32443 -4.36663,9.03683l6.56163,14.96798h-6.79514l-5.39408,-13.28671zM336.13289,335.78214h1.63457c1.49446,0 2.56861,-0.42421 3.22244,-1.27263c0.65383,-0.84842 0.98074,-2.11326 0.98074,-3.79454c0,-1.74354 -0.34637,-2.98503 -1.03912,-3.72448c-0.69275,-0.73945 -1.763,-1.10917 -3.21076,-1.10917h-1.58787z" data-paper-data="{&quot;glyphName&quot;:&quot;R&quot;,&quot;glyphIndex&quot;:10,&quot;word&quot;:2,&quot;line&quot;:2}"></path><path d="M392.12856,337.41671c0,5.65094 -1.05858,9.99422 -3.17573,13.02985c-2.11716,3.03563 -5.145,4.55344 -9.08353,4.55344c-3.9541,0 -6.98973,-1.51392 -9.10689,-4.54177c-2.11716,-3.02784 -3.17573,-7.39059 -3.17573,-13.08823c0,-5.65094 1.05858,-9.98255 3.17573,-12.99482c2.11716,-3.01228 5.16835,-4.51842 9.15359,-4.51842c3.93853,0 6.95859,1.51392 9.06018,4.54177c2.10159,3.02784 3.15238,7.36724 3.15238,13.01818zM374.07824,337.41671c0,3.89183 0.49037,6.85741 1.47111,8.89673c0.98074,2.03932 2.42072,3.05898 4.31993,3.05898c3.82956,0 5.74434,-3.98524 5.74434,-11.95571c0,-7.97047 -1.89921,-11.95571 -5.69764,-11.95571c-1.93035,0 -3.38589,1.01577 -4.36663,3.0473c-0.98074,2.03154 -1.47111,5.001 -1.47111,8.9084z" data-paper-data="{&quot;glyphName&quot;:&quot;O&quot;,&quot;glyphIndex&quot;:11,&quot;lastGlyphOfWord&quot;:true,&quot;word&quot;:2,&quot;line&quot;:2,&quot;lastGlyphOfSecondLine&quot;:true}"></path></g><g data-paper-data="{&quot;isIcon&quot;:&quot;true&quot;,&quot;iconType&quot;:&quot;icon&quot;,&quot;rawIconId&quot;:&quot;36896dc1-4f37-4e04-85fb-7e88ca164f32&quot;,&quot;selectedEffects&quot;:{&quot;container&quot;:&quot;&quot;,&quot;transformation&quot;:&quot;&quot;,&quot;pattern&quot;:&quot;&quot;},&quot;isDetailed&quot;:true,&quot;iconStyle&quot;:&quot;standalone&quot;,&quot;bounds&quot;:{&quot;x&quot;:214.44137509905698,&quot;y&quot;:115,&quot;width&quot;:121.11724980188609,&quot;height&quot;:123.10559619291033},&quot;fillRule&quot;:&quot;nonzero&quot;,&quot;suitableAsStandaloneIcon&quot;:true}"><path d="M335.55862,238.1056h-22.99585c-6.05154,0 -11.1089,-1.67138 -15.17208,-5.01413c-4.06317,-3.34275 -7.0169,-7.46357 -8.86118,-12.36243l-10.97922,-30.4306c-1.49848,-4.7836 -3.2563,-8.40011 -5.27349,-10.84954c-2.01718,-2.44943 -4.92768,-3.7606 -8.73151,-3.9335h-2.50706c0,-1.09504 0.47548,-2.10363 1.42644,-3.02577c0.95095,-0.92214 2.29094,-1.38321 4.01995,-1.38321h2.07482c3.97672,0 7.46357,-1.41203 10.46052,-4.23608c2.99695,-2.82405 5.31671,-6.22444 6.95927,-10.20116c1.64256,-3.97672 2.46384,-7.75173 2.46384,-11.32503c0,-3.63093 -0.82128,-7.44916 -2.46384,-11.4547c-1.64256,-4.00554 -3.94791,-7.43475 -6.91605,-10.28762c-2.96814,-2.85287 -6.46938,-4.2793 -10.50375,-4.2793h-14.69659v40.71822c-5.3023,0 -10.14353,-0.92214 -14.5237,-2.76642c-4.38016,-1.84428 -7.88141,-4.6107 -10.50375,-8.29926c-2.62233,-3.68856 -3.9335,-8.32807 -3.9335,-13.91854c0,-4.2649 -0.31698,-7.60765 -0.95095,-10.02826c-1.32558,-4.9565 -4.49543,-7.43475 -9.50956,-7.43475v-2.59352h54.11806c13.94736,0 25.50291,2.36298 34.66667,7.08894c10.02826,5.18704 15.0424,12.93877 15.0424,23.2552c0,16.13744 -9.42311,25.70464 -28.26934,28.70159c3.74619,0.3458 7.29066,1.81546 10.63342,4.40898c2.13245,1.61374 3.67415,3.24189 4.6251,4.88446c0.95095,1.64256 1.80105,3.64533 2.55029,6.00832l9.76892,28.18289c0.80687,2.36298 2.14686,4.91327 4.01995,7.65088c1.87309,2.7376 4.01995,5.1294 6.44057,7.1754c2.42061,2.046 4.87005,3.069 7.3483,3.069zM239.4256,188.31007c-3.45802,0 -6.41175,-1.22472 -8.86118,-3.67415c-2.44943,-2.44943 -3.67415,-5.40316 -3.67415,-8.86118c0,-3.45802 1.22472,-6.41175 3.67415,-8.86118c2.44943,-2.44943 5.40316,-3.67415 8.86118,-3.67415c3.45802,0 6.39734,1.22472 8.81796,3.67415c2.42061,2.44943 3.63093,5.40316 3.63093,8.86118c0,3.45802 -1.21031,6.41175 -3.63093,8.86118c-2.42061,2.44943 -5.35994,3.67415 -8.81796,3.67415zM264.40981,238.1056h-49.96843v-2.67997c4.72596,0 7.80937,-3.11222 9.25021,-9.33666c0.8645,-3.68856 1.29676,-8.32807 1.29676,-13.91854l-0.08645,-20.57524c5.3023,0 10.15794,1.00859 14.56692,3.02577c4.40898,2.01718 7.91022,4.97091 10.50375,8.86118c2.59352,3.89027 3.89027,8.63065 3.89027,14.22112c0.11527,4.66833 0.46107,8.09754 1.0374,10.28762c1.32558,4.9565 4.49543,7.43475 9.50956,7.43475z" data-paper-data="{&quot;isPathIcon&quot;:true}"></path></g></g></g><g class="watermark-group" style="opacity:0.040000010281801224"><path class="watermark-path" d="M129.52,370.3a11.88,11.88,0,0,1,2.58,5.58,12,12,0,0,1,.11,3,11.81,11.81,0,0,1-.64,2.93,12.34,12.34,0,0,1-1.41,2.72,11.65,11.65,0,0,1-2.13,2.32,12,12,0,0,1-2.64,1.69,13,13,0,0,1-2.91.9,12.47,12.47,0,0,1-3,.12,12.17,12.17,0,0,1-2.93-.64,11.8,11.8,0,0,1-2.72-1.38,12.19,12.19,0,0,1-4-4.79,11.85,11.85,0,0,1-.89-2.92,12.14,12.14,0,0,1-.13-3,11.54,11.54,0,0,1,.64-2.92,11.67,11.67,0,0,1,3.5-5,11.44,11.44,0,0,1,2.67-1.69,11.64,11.64,0,0,1,2.92-.91,10.71,10.71,0,0,1,3-.12,11.68,11.68,0,0,1,5.66,2,11.7,11.7,0,0,1,2.34,2.12m-1.4,8.76a13,13,0,0,1-1.22,2.32,9.68,9.68,0,0,1-1.81,2,7.44,7.44,0,0,1-2.38,1.37,6.17,6.17,0,0,1-5.11-.46,8.73,8.73,0,0,1-3.85-4.58,6.69,6.69,0,0,1-.34-2.66,6.09,6.09,0,0,1,.77-2.47,7.15,7.15,0,0,1,1.75-2.11,9.58,9.58,0,0,1,1.09-.81,8.23,8.23,0,0,1,1.12-.63,8.14,8.14,0,0,1,1.19-.46,12.71,12.71,0,0,1,1.32-.37l2,2.38a12.83,12.83,0,0,0-1.56.17,7.86,7.86,0,0,0-1.23.32,4.5,4.5,0,0,0-1,.49,6.41,6.41,0,0,0-.93.67,4.49,4.49,0,0,0-1.15,1.39,3.87,3.87,0,0,0-.45,1.58,4.12,4.12,0,0,0,.26,1.63,6.11,6.11,0,0,0,2.36,2.82,4.43,4.43,0,0,0,1.57.53,3.91,3.91,0,0,0,1.62-.17,4.71,4.71,0,0,0,1.57-.89,10.5,10.5,0,0,0,.83-.79,5.71,5.71,0,0,0,.65-.93,10.13,10.13,0,0,0,.54-1.14,12.24,12.24,0,0,0,.44-1.49l2,2.33m-14.46,4.55a8.86,8.86,0,0,0,2.78,2.22,9,9,0,0,0,3.29.94,9.15,9.15,0,0,0,3.39-.37,8.68,8.68,0,0,0,3.11-1.69,8.8,8.8,0,0,0,2.22-2.78,9.15,9.15,0,0,0,1-3.29,8.95,8.95,0,0,0-4.83-8.76,9,9,0,0,0-6.73-.57,9,9,0,0,0-5.33,4.47,8.94,8.94,0,0,0-.57,6.71,8.76,8.76,0,0,0,1.7,3.12"></path><path class="watermark-path" d="M147,349c-.48.12-1.09.31-1.82.57a24.37,24.37,0,0,0-2.4,1A28.35,28.35,0,0,0,140,352a20.72,20.72,0,0,0-2.71,1.94c-.7.59-1.28,1.11-1.74,1.57a15.07,15.07,0,0,0-1.1,1.22,4.09,4.09,0,0,0-.59.92,2.32,2.32,0,0,0-.22.64,1.16,1.16,0,0,0,0,.47,1.83,1.83,0,0,0,.18.29,1.15,1.15,0,0,0,1,.37,5.54,5.54,0,0,0,1.51-.38q.87-.35,1.95-.9l2.26-1.18q1.2-.65,2.49-1.29c.87-.44,1.73-.83,2.59-1.17a18.94,18.94,0,0,1,2.6-.81,9.27,9.27,0,0,1,2.46-.29,6.25,6.25,0,0,1,2.24.49,5.12,5.12,0,0,1,1.89,1.47,6.35,6.35,0,0,1,1.41,2.61,6,6,0,0,1,.09,2.6,8.3,8.3,0,0,1-.9,2.52,17.79,17.79,0,0,1-1.62,2.37,23.92,23.92,0,0,1-2,2.15c-.72.67-1.41,1.29-2.09,1.87a33.79,33.79,0,0,1-5.33,3.7,32.29,32.29,0,0,1-4.91,2.28l-3.61-4.3a21.38,21.38,0,0,0,5.39-1.87,27.2,27.2,0,0,0,5.4-3.56,21.59,21.59,0,0,0,2.38-2.27,8.67,8.67,0,0,0,1.18-1.7,2.32,2.32,0,0,0,.27-1.19,1.34,1.34,0,0,0-.28-.74,1.21,1.21,0,0,0-1-.42,4.32,4.32,0,0,0-1.55.34,15.77,15.77,0,0,0-2,.88c-.72.37-1.48.77-2.27,1.21l-2.45,1.3c-.85.45-1.7.85-2.56,1.21a22.37,22.37,0,0,1-2.54.86,10,10,0,0,1-2.43.32,5.76,5.76,0,0,1-2.2-.45,5,5,0,0,1-1.89-1.45,6.12,6.12,0,0,1-1.31-2.41,6,6,0,0,1-.1-2.41,8.28,8.28,0,0,1,.81-2.38,14.06,14.06,0,0,1,1.49-2.24,22.37,22.37,0,0,1,1.85-2.05q1-1,2-1.77c.7-.59,1.44-1.15,2.23-1.7s1.62-1.06,2.44-1.53,1.63-.91,2.43-1.3,1.58-.75,2.3-1L147,349"></path><path class="watermark-path" d="M186.76,337.57l-10.6-12.63,3.92,18.24-4.66,3.91-17.27-7,10.6,12.63-4.86,4.07-15.09-18,6.59-5.54,18.69,7.52-4.15-19.71,6.57-5.52,15.09,18-4.83,4.05"></path><path class="watermark-path" d="M208.84,313.24l-10,8.42,1.16,4.82L194.56,331l-5.68-25.89,5.42-4.55,24.51,10.09-5.42,4.55-4.55-2m-11.23,3.45,6.57-5.52-8.83-3.87,2.26,9.39"></path><path class="watermark-path" d="M227.49,281.38c-.48.12-1.09.31-1.82.57a24.37,24.37,0,0,0-2.4,1,26.11,26.11,0,0,0-2.7,1.47,20.72,20.72,0,0,0-2.71,1.94c-.7.59-1.28,1.11-1.74,1.57a13.39,13.39,0,0,0-1.1,1.22,4.29,4.29,0,0,0-.59.91,2.48,2.48,0,0,0-.22.65,1.16,1.16,0,0,0,0,.47,1.83,1.83,0,0,0,.18.29,1.15,1.15,0,0,0,1,.37,5.54,5.54,0,0,0,1.51-.38q.87-.34,2-.9l2.26-1.18q1.2-.64,2.49-1.29c.87-.44,1.73-.83,2.59-1.17a18.94,18.94,0,0,1,2.6-.81,9.27,9.27,0,0,1,2.46-.29,6.08,6.08,0,0,1,2.24.49,5.09,5.09,0,0,1,1.89,1.46,6.47,6.47,0,0,1,1.41,2.61,6.07,6.07,0,0,1,.09,2.61,8.3,8.3,0,0,1-.9,2.52,16.32,16.32,0,0,1-1.63,2.36,21.41,21.41,0,0,1-2,2.16c-.72.67-1.41,1.29-2.1,1.86a33.36,33.36,0,0,1-5.32,3.71,31.92,31.92,0,0,1-4.92,2.28l-3.6-4.3a21.38,21.38,0,0,0,5.39-1.87,27.2,27.2,0,0,0,5.4-3.56,21.59,21.59,0,0,0,2.38-2.27,8.67,8.67,0,0,0,1.18-1.7A2.32,2.32,0,0,0,231,293a1.34,1.34,0,0,0-.28-.74,1.21,1.21,0,0,0-1-.42,4.32,4.32,0,0,0-1.55.34,16.54,16.54,0,0,0-2,.88c-.71.37-1.47.77-2.26,1.21l-2.46,1.3c-.84.44-1.7.85-2.55,1.21a24.53,24.53,0,0,1-2.54.86A10,10,0,0,1,214,298a5.76,5.76,0,0,1-2.2-.45,5,5,0,0,1-1.89-1.45,6.12,6.12,0,0,1-1.31-2.41,5.78,5.78,0,0,1-.1-2.41,8,8,0,0,1,.81-2.38,14.61,14.61,0,0,1,1.49-2.25,22.26,22.26,0,0,1,1.85-2q1-1,2-1.77c.7-.59,1.44-1.15,2.23-1.7s1.62-1.06,2.44-1.53,1.63-.91,2.43-1.31,1.58-.74,2.3-1l3.5,4.16"></path><path class="watermark-path" d="M261.64,274.74l-6.29-7.5L243,277.61l6.3,7.5-4.86,4.07-15.09-18,4.85-4.08,5.49,6.55L252,263.3l-5.49-6.55,4.86-4.07,15.09,18-4.86,4.08"></path><path class="watermark-path" d="M272.18,265.9l-15.09-18,4.86-4.08,15.09,18-4.86,4.08"></path><path class="watermark-path" d="M299.65,242.85l-22.51-2.18L287.51,253l-4.85,4.08-15.1-18,5.28-4.43,22.56,2.22L285,224.5l4.83-4.06,15.09,18-5.26,4.42"></path><path class="watermark-path" d="M306.68,205.52a31.88,31.88,0,0,1,5.29-3.66,34.48,34.48,0,0,1,5.14-2.35l3.69,4.39a20.77,20.77,0,0,0-2.37.61,20.47,20.47,0,0,0-2.61,1,25.12,25.12,0,0,0-2.76,1.49,23.9,23.9,0,0,0-2.8,2,20.42,20.42,0,0,0-2.8,2.77,12.77,12.77,0,0,0-1.64,2.52,7,7,0,0,0-.68,2.24,6,6,0,0,0,.66,3.64,8.16,8.16,0,0,0,.94,1.38,9.12,9.12,0,0,0,1.08,1.07,6.39,6.39,0,0,0,1.47.91,6.73,6.73,0,0,0,1.88.48,6.54,6.54,0,0,0,2.28-.18,11.67,11.67,0,0,0,2.74-1.07,19.38,19.38,0,0,0,3.18-2.22c.57-.48,1.06-.92,1.46-1.31a14.57,14.57,0,0,0,1-1.13,11.46,11.46,0,0,0,.81-1.05l.74-1.09-1.82-2.17-5.45,4.57-3.31-3.94,10.31-8.65,7.71,9.19a29,29,0,0,1-1.67,2.43q-1,1.26-2.1,2.52c-.74.84-1.5,1.65-2.3,2.44s-1.58,1.5-2.33,2.14a31,31,0,0,1-3.59,2.61,22.55,22.55,0,0,1-3.64,1.83,15.64,15.64,0,0,1-3.63.89,10.72,10.72,0,0,1-3.49-.15,10.45,10.45,0,0,1-3.28-1.33,12.54,12.54,0,0,1-3-2.67,12,12,0,0,1-2.08-3.44,10.45,10.45,0,0,1-.71-3.5,11.14,11.14,0,0,1,.51-3.51,15.72,15.72,0,0,1,1.56-3.43,21.62,21.62,0,0,1,2.42-3.28,30.3,30.3,0,0,1,3.15-3"></path><path class="watermark-path" d="M336.91,211.59l-15.1-18,4.86-4.08,11.79,14,13.13-11,3.31,3.94-18,15.1"></path><path class="watermark-path" d="M374.54,164.71a12.28,12.28,0,0,1,2.59,4.81,10.44,10.44,0,0,1,0,5,14.62,14.62,0,0,1-2.33,5,25.55,25.55,0,0,1-4.56,4.85,26.07,26.07,0,0,1-5.6,3.67,14.79,14.79,0,0,1-5.38,1.43,10.43,10.43,0,0,1-4.94-.89,13.24,13.24,0,0,1-6.87-8.18,10.48,10.48,0,0,1,0-5,14.51,14.51,0,0,1,2.36-5,25.23,25.23,0,0,1,4.57-4.89,25,25,0,0,1,5.59-3.64,14.45,14.45,0,0,1,5.35-1.43,10.31,10.31,0,0,1,4.93.92,12.22,12.22,0,0,1,4.28,3.38m-4.91,4.11a8.36,8.36,0,0,0-2-1.72,5.5,5.5,0,0,0-2.65-.85,7.72,7.72,0,0,0-3.32.57,14.49,14.49,0,0,0-4,2.52,16.72,16.72,0,0,0-2.38,2.4,10.15,10.15,0,0,0-1.39,2.24,6.71,6.71,0,0,0-.56,2.1,5.69,5.69,0,0,0,.1,1.9,6.21,6.21,0,0,0,.61,1.69,9.85,9.85,0,0,0,1,1.44,10.48,10.48,0,0,0,1.26,1.23,6.67,6.67,0,0,0,1.57.92,6.1,6.1,0,0,0,1.85.41,6.8,6.8,0,0,0,2.15-.2,11.06,11.06,0,0,0,2.45-1,17.67,17.67,0,0,0,2.77-1.94,14.39,14.39,0,0,0,3.18-3.52,7.74,7.74,0,0,0,1.14-3.17,5.54,5.54,0,0,0-.37-2.74,8.52,8.52,0,0,0-1.36-2.3"></path><path class="watermark-path" d="M382.66,141.76A32.3,32.3,0,0,1,388,138.1a34.12,34.12,0,0,1,5.15-2.35l3.69,4.4a19.62,19.62,0,0,0-2.37.6,22.08,22.08,0,0,0-2.61,1,26,26,0,0,0-2.77,1.49,23.9,23.9,0,0,0-2.8,2,21,21,0,0,0-2.8,2.78,13.19,13.19,0,0,0-1.64,2.51,7.29,7.29,0,0,0-.68,2.24,6.36,6.36,0,0,0,.06,2,5.8,5.8,0,0,0,.61,1.68,8.12,8.12,0,0,0,.93,1.38,9.16,9.16,0,0,0,1.08,1.08,6.56,6.56,0,0,0,1.48.9,6,6,0,0,0,1.87.48,6.76,6.76,0,0,0,2.28-.17,12,12,0,0,0,2.74-1.08,18.57,18.57,0,0,0,3.18-2.22c.58-.48,1.06-.92,1.46-1.31s.75-.77,1.05-1.12.57-.72.81-1.06l.73-1.09-1.82-2.17-5.45,4.57-3.3-3.94,10.3-8.65,7.71,9.19a29,29,0,0,1-1.67,2.43q-1,1.26-2.1,2.52c-.73.84-1.5,1.66-2.3,2.44s-1.57,1.5-2.33,2.14a31,31,0,0,1-3.59,2.61,22.15,22.15,0,0,1-3.64,1.83,15.56,15.56,0,0,1-3.62.89,11,11,0,0,1-3.49-.14,10.84,10.84,0,0,1-3.28-1.33,12.82,12.82,0,0,1-3-2.68,12.12,12.12,0,0,1-2.08-3.43A10.71,10.71,0,0,1,375,155a11.18,11.18,0,0,1,.51-3.51,15.51,15.51,0,0,1,1.57-3.43,21.44,21.44,0,0,1,2.42-3.28,30.19,30.19,0,0,1,3.14-3"></path><path class="watermark-path" d="M428.63,119.31a12.26,12.26,0,0,1,2.59,4.82,10.44,10.44,0,0,1,0,5,14.53,14.53,0,0,1-2.34,5,25.29,25.29,0,0,1-4.56,4.86,26,26,0,0,1-5.59,3.67,14.84,14.84,0,0,1-5.38,1.43,10.61,10.61,0,0,1-4.95-.89,12.15,12.15,0,0,1-4.3-3.37,12,12,0,0,1-2.56-4.81,10.48,10.48,0,0,1,0-5,14.39,14.39,0,0,1,2.35-5,27.89,27.89,0,0,1,10.16-8.53,14.49,14.49,0,0,1,5.36-1.43,10.27,10.27,0,0,1,4.92.92,12.21,12.21,0,0,1,4.28,3.37m-4.91,4.12a8.17,8.17,0,0,0-2-1.72,5.58,5.58,0,0,0-2.65-.86,7.86,7.86,0,0,0-3.31.58,14.49,14.49,0,0,0-4,2.52,16.21,16.21,0,0,0-2.38,2.4,9.85,9.85,0,0,0-1.4,2.24,7,7,0,0,0-.56,2.1,6,6,0,0,0,.1,1.9,6.23,6.23,0,0,0,.62,1.69,8.49,8.49,0,0,0,1,1.44,9.18,9.18,0,0,0,1.26,1.23,6.67,6.67,0,0,0,1.57.92,6,6,0,0,0,1.84.41,6.86,6.86,0,0,0,2.16-.2,11.26,11.26,0,0,0,2.45-1,17.62,17.62,0,0,0,2.76-1.94,14.67,14.67,0,0,0,3.19-3.52,7.71,7.71,0,0,0,1.13-3.17,5.53,5.53,0,0,0-.36-2.74,8.55,8.55,0,0,0-1.37-2.3"></path></g></svg>