<svg version="1.1" xmlns="http://www.w3.org/2000/svg" xmlns:xlink="http://www.w3.org/1999/xlink" width="2500" height="2455" viewBox="0,0,256,251.39063"><g fill="#ffdb7e" fill-rule="nonzero" stroke="none" stroke-width="1" stroke-linecap="butt" stroke-linejoin="miter" stroke-miterlimit="10" stroke-dasharray="" stroke-dashoffset="0" font-family="none" font-weight="none" font-size="none" text-anchor="none" style="mix-blend-mode: normal"><g transform="translate(1.66747,-0.90398) scale(0.25501,0.2525)"><path d="M12.1,353.9c0,0 -24,-17.3 4.8,-40.4l67.1,-60c0,0 19.2,-20.2 39.5,-2.6l619.2,468.8v224.8c0,0 -0.3,35.3 -45.6,31.4z"></path><path d="M171.7,498.8l-159.6,145.1c0,0 -16.4,12.2 0,34l74.1,67.4c0,0 17.6,18.9 43.6,-2.6l169.2,-128.3z"></path><path d="M451.9,500l292.7,-223.5l-1.9,-223.6c0,0 -12.5,-48.8 -54.2,-23.4l-389.5,354.5z"></path><path d="M697.1,976.2c17,17.4 37.6,11.7 37.6,11.7l228.1,-112.4c29.2,-19.9 25.1,-44.6 25.1,-44.6v-671.2c0,-29.5 -30.2,-39.7 -30.2,-39.7l-197.7,-95.3c-43.2,-26.7 -71.5,4.8 -71.5,4.8c0,0 36.4,-26.2 54.2,23.4v887.5c0,6.1 -1.3,12.1 -3.9,17.5c-5.2,10.5 -16.5,20.3 -43.6,16.2z"></path></g></g></svg>