<svg version="1.1" xmlns="http://www.w3.org/2000/svg" xmlns:xlink="http://www.w3.org/1999/xlink" width="800px" height="800px" viewBox="0,0,256,256"><g fill="#ffdb7e" fill-rule="nonzero" stroke="none" stroke-width="1" stroke-linecap="butt" stroke-linejoin="miter" stroke-miterlimit="10" stroke-dasharray="" stroke-dashoffset="0" font-family="none" font-weight="none" font-size="none" text-anchor="none" style="mix-blend-mode: normal"><g transform="translate(0.00002,-0.00584) scale(0.5,0.5)"><path d="M429.76,130.07l-155.43,-93.22c-11.35856,-6.47555 -25.29144,-6.47555 -36.65,0l-155.44,93.21c-11.39279,6.98153 -18.30967,19.40839 -18.24,32.77v186.17c-0.06835,13.36924 6.84685,25.80447 18.24,32.8l40.76,24.34l0.23,0.13c20.58,10.53 28.46,10.53 37.59,10.53c32.14,0 52.11,-20.8 52.11,-54.29v-180.51c0.03886,-4.69227 -3.72783,-8.53053 -8.42,-8.58h-22.38c-4.69217,0.04947 -8.45886,3.88773 -8.42,8.58v180.51c0.16563,5.25622 -2.43344,10.21531 -6.85,13.07c-5.9,3.6 -14.47,2.84 -24.14,-2.15l-39.06,-23.51c-0.30368,-0.20719 -0.48379,-0.55239 -0.48,-0.92v-183.54c0.01304,-0.42813 0.233,-0.82332 0.59,-1.06l151.84,-93c0.22991,-0.11429 0.50009,-0.11429 0.73,0l151.93,93c0.3507,0.25592 0.55569,0.66589 0.55,1.1v183.5c0.00761,0.38396 -0.15758,0.75105 -0.45,1l-152.06,90.65c-0.25909,0.08992 -0.54091,0.08992 -0.8,0l-38.83,-23.06c-2.34666,-1.53387 -5.33598,-1.6904 -7.83,-0.41l-0.34,0.2c-10.72,6.35 -13.6,8 -23.54,11.62c-1.62,0.59 -5.43,2 -5.76,5.77c-0.33,3.77 3.29,6.45 6.51,8.32l51.9,31.87c5.52984,3.31248 11.85395,5.06457 18.3,5.07h0.58v0c6.2849,-0.09859 12.43354,-1.84697 17.83,-5.07l155.43,-93.13c11.38619,-7.01651 18.29724,-19.45564 18.24,-32.83v-186.17c0.06419,-13.35755 -6.85173,-25.77891 -18.24,-32.76z"></path><path d="M307.88,318.05c-37.29,0 -45.24,-10.42 -47.6,-27.24c-0.54921,-4.13892 -4.04535,-7.25227 -8.22,-7.32h-19.8c-4.64583,0.09845 -8.33812,3.93378 -8.26,8.58c0,14.58 5.12,62.17 83.92,62.17v0c24.38,0 44.66,-5.7 58.63,-16.49c13.97,-10.79 21.45,-26.49 21.45,-45.2c0,-37.55 -24.5,-47.83 -72.75,-54.55c-49.05,-6.82 -49.05,-10.29 -49.05,-17.89c0,-5.47 0,-18.28 35.46,-18.28c25.23,0 38.74,3.19 43.06,20c0.7882,3.83948 4.14085,6.61394 8.06,6.67h19.87c2.369,-0.02346 4.61329,-1.06545 6.16,-2.86c1.52771,-1.78342 2.2896,-4.09784 2.12,-6.44c-2.57,-35.55 -28.56,-53.58 -79.24,-53.58c-46.06,0 -73.55,20.75 -73.55,55.5c0,38.1 28.49,48.87 71.29,53.33c50,5.17 50,12.71 50,19.37c0.03,10.38 -4.28,24.23 -41.55,24.23z"></path></g></g></svg>