<svg version="1.1" xmlns="http://www.w3.org/2000/svg" xmlns:xlink="http://www.w3.org/1999/xlink" width="800px" height="800px" viewBox="0,0,256,256"><g fill="none" fill-rule="nonzero" stroke="none" stroke-width="1" stroke-linecap="butt" stroke-linejoin="miter" stroke-miterlimit="10" stroke-dasharray="" stroke-dashoffset="0" font-family="none" font-weight="none" font-size="none" text-anchor="none" style="mix-blend-mode: normal"><g transform="translate(0,0.00003)"><g><path d="M254.95312,144.25307c8.95839,-70.13136 -40.56869,-134.2478 -110.57207,-143.20619c-70.00338,-8.95839 -134.37578,40.56869 -143.33417,110.57207c-8.95839,70.00338 40.56869,134.2478 110.57207,143.33417c70.13136,8.95839 134.2478,-40.56869 143.33417,-110.70005z" fill="#ffdb7e"></path><g transform="translate(50.18123,45.19892)"><path d="M124.01845,36.98533l-54.00627,54.00627l-15.22926,-15.22926c53.11043,-53.11043 58.35748,-48.50326 69.23552,-38.77701z" fill="#ffffff"></path><path d="M70.01218,92.27137c-0.38393,0 -0.63988,-0.12798 -0.89584,-0.38393l-15.35723,-15.22926c-0.51191,-0.51191 -0.51191,-1.27977 0,-1.79168c54.00627,-54.00627 59.63725,-48.88719 71.0272,-38.64903c0.25595,0.25595 0.38393,0.51191 0.38393,0.89584c0,0.38393 -0.12798,0.63988 -0.38393,0.89584l-54.00627,53.87829c-0.12798,0.25595 -0.51191,0.38393 -0.76786,0.38393zM56.5746,75.76234l13.43758,13.43758l52.08661,-52.08661c-9.47029,-8.44648 -15.86914,-11.00602 -65.52419,38.64903z" fill="#ffdb7e"></path><path d="M85.49739,106.47681l-14.71735,-14.71735l54.00627,-54.00627c14.46139,14.58937 -7.16671,38.2651 -39.28892,68.72361z" fill="#ffffff"></path><path d="M85.49739,107.75658c-0.38393,0 -0.63988,-0.12798 -0.89584,-0.38393l-14.71735,-14.71735c-0.25595,-0.25595 -0.25595,-0.51191 -0.25595,-0.89584c0,-0.38393 0.12798,-0.63988 0.38393,-0.89584l54.00627,-54.00627c0.51191,-0.51191 1.27977,-0.51191 1.79168,0c3.3274,3.07145 5.11908,7.42266 4.9911,11.90185c-0.25595,14.20544 -16.38105,32.25019 -44.28002,58.61344c-0.38393,0.25595 -0.76786,0.38393 -1.02382,0.38393zM72.57172,91.75946c8.19052,8.3185 11.6459,11.6459 12.92567,12.92567c21.50013,-20.47631 42.36037,-41.46453 42.48834,-55.92592c0.12798,-3.3274 -1.15179,-6.6548 -3.3274,-9.21434z" fill="#ffdb7e"></path><path d="M55.03888,76.14628l10.87804,10.87804c0.25595,0.25595 0.25595,0.51191 0,0.76786c-0.12798,0.12798 -0.12798,0.12798 -0.25595,0.12798l-22.52394,4.86312c-1.15179,0.12798 -2.17561,-0.63988 -2.43156,-1.79168c-0.12798,-0.63988 0.12798,-1.27977 0.51191,-1.6637l13.05365,-13.05365c0.25595,-0.25595 0.63988,-0.38393 0.76786,-0.12798z" fill="#ffffff"></path><path d="M42.7531,94.06305c-1.91965,0 -3.3274,-1.53572 -3.3274,-3.45538c0,-0.89584 0.38393,-1.79168 1.02382,-2.43156l13.05365,-13.05365c0.76786,-0.63988 1.79168,-0.63988 2.55954,0l10.87804,10.87804c0.76786,0.63988 0.76786,1.79168 0,2.55954c-0.25595,0.25595 -0.51191,0.38393 -0.89584,0.51191l-22.52394,4.86312c-0.25595,0 -0.51191,0.12798 -0.76786,0.12798zM54.65495,77.55402l-12.54174,12.54174c-0.25595,0.25595 -0.38393,0.63988 -0.12798,1.02382c0.12798,0.38393 0.51191,0.51191 0.89584,0.38393l21.11619,-4.60717z" fill="#ffdb7e"></path><path d="M152.5573,7.03873c-8.19052,-7.93457 -21.37215,-7.67862 -29.30672,0.63988c-7.93457,8.3185 -7.67862,21.37215 0.63988,29.30672c6.78278,6.52682 17.02093,7.67862 25.08348,2.81549l-14.58937,-14.58937z" fill="#ffffff"></path><path d="M138.22389,44.02407c-12.15781,0 -22.01203,-9.85422 -22.01203,-22.01203c0,-12.15781 9.85422,-22.01203 22.01203,-22.01203c5.63099,0 11.13399,2.17561 15.22926,6.14289c0.25595,0.25595 0.38393,0.51191 0.38393,0.89584c0,0.38393 -0.12798,0.63988 -0.38393,0.89584l-17.27689,17.27689l13.56556,13.56556c0.51191,0.51191 0.51191,1.27977 0,1.79168c-0.12798,0.12798 -0.12798,0.12798 -0.25595,0.25595c-3.3274,2.04763 -7.29469,3.19942 -11.26197,3.19942zM138.22389,2.68752c-10.75006,0 -19.45249,8.70243 -19.32452,19.45249c0,10.75006 8.70243,19.45249 19.45249,19.32452c2.94347,0 5.88694,-0.63988 8.57445,-2.04763l-13.43758,-13.3096c-0.25595,-0.25595 -0.38393,-0.51191 -0.38393,-0.89584c0,-0.38393 0.12798,-0.63988 0.38393,-0.89584l17.14891,-17.14891c-3.45538,-2.94347 -7.80659,-4.47919 -12.41376,-4.47919z" fill="#ffdb7e"></path><path d="M152.94124,7.42266l-0.25595,-0.25595l-18.3007,18.04475l14.46139,14.46139c1.40775,-0.89584 2.81549,-1.91965 3.96729,-3.07145c8.19052,-8.06255 8.19052,-21.11619 0.12798,-29.17874z" fill="#ffffff"></path><path d="M148.97395,41.0806c-0.38393,0 -0.63988,-0.12798 -0.89584,-0.38393l-14.58937,-14.58937c-0.25595,-0.25595 -0.38393,-0.51191 -0.38393,-0.89584c0,-0.38393 0.12798,-0.63988 0.38393,-0.89584l18.17272,-18.17272c0.51191,-0.51191 1.27977,-0.51191 1.79168,0l0.38393,0.25595c8.57445,8.57445 8.57445,22.39596 0.12798,31.09839c-1.27977,1.27977 -2.68752,2.43156 -4.22324,3.3274c-0.38393,0.12798 -0.63989,0.25595 -0.76786,0.25595zM136.17626,25.21146l12.92567,12.92567c1.02382,-0.63988 2.04763,-1.53572 2.81549,-2.30358c7.29469,-7.29469 7.67862,-19.19654 0.63988,-26.87516z" fill="#ffdb7e"></path><path d="M126.19406,39.28892c-3.07145,-3.07145 -8.06255,-3.07145 -11.13399,0l-48.2473,48.2473l8.06255,8.06255l51.0628,-44.79193c3.3274,-2.81549 3.58335,-7.80659 0.76786,-11.13399c-0.25595,-0.12798 -0.38393,-0.25595 -0.51191,-0.38393z" fill="#ffffff"></path><path d="M74.74733,96.87854c-0.38393,0 -0.63988,-0.12798 -0.89584,-0.38393l-8.06255,-8.06255c-0.51191,-0.51191 -0.51191,-1.27977 0,-1.79168l48.2473,-48.2473c3.58335,-3.58335 9.34232,-3.58335 12.92567,0c3.58335,3.58335 3.58335,9.34232 0,12.92567c-0.12798,0.12798 -0.25595,0.25595 -0.38393,0.38393l-51.0628,44.79193c-0.12798,0.25595 -0.38393,0.38393 -0.76786,0.38393zM68.60444,87.53622l6.27087,6.27087l50.16696,-44.02407c2.81549,-2.30358 3.07145,-6.52682 0.76786,-9.34232c-2.30358,-2.81549 -6.52682,-3.07145 -9.34232,-0.76786c-0.12798,0.12798 -0.25595,0.25595 -0.51191,0.38393z" fill="#ffdb7e"></path><path d="M29.82742,142.43833c-0.51191,0.25595 -0.76786,0.76786 -0.63988,1.27977l2.17561,9.21434c0.51191,1.27977 -0.25595,2.81549 -1.6637,3.19942c-1.02382,0.38393 -2.17561,0 -2.81549,-0.76786l-14.07746,-13.94949l45.94372,-45.94372l15.86914,0.25595l10.75006,10.75006c-2.55954,2.17561 -18.04475,17.14891 -55.54199,35.96152z" fill="#ffffff"></path><path d="M28.80361,157.41163c-1.02382,0 -2.04763,-0.38393 -2.68752,-1.15179l-13.94949,-13.94949c-0.25595,-0.25595 -0.38393,-0.51191 -0.38393,-0.89584c0,-0.38393 0.12798,-0.63988 0.38393,-0.89584l45.94372,-45.94372c0.25595,-0.25595 0.63988,-0.38393 0.89584,-0.38393l15.86914,0.25595c0.38393,0 0.63988,0.12798 0.89584,0.38393l10.75006,10.75006c0.25595,0.25595 0.38393,0.63989 0.38393,1.02382c0,0.38393 -0.12798,0.63988 -0.51191,0.89584l-0.89584,0.76786c-13.56555,11.90185 -31.99423,23.80371 -54.9021,35.19366l2.17561,9.08636c0.38393,1.6637 -0.38393,3.45538 -1.91965,4.35122c-0.76786,0.38393 -1.40775,0.51191 -2.04763,0.51191zM14.72615,141.41451l13.18162,13.05365c0.38393,0.63988 1.15179,0.89584 1.79168,0.51191c0.63988,-0.38393 0.89584,-1.15179 0.51191,-1.79168l-2.17561,-9.21434c-0.25595,-1.15179 0.25595,-2.17561 1.27977,-2.68752c22.65192,-11.38995 40.95262,-23.16382 54.3902,-34.80973l-9.47029,-9.47029l-14.71735,-0.25595z" fill="#ffdb7e"></path><path d="M1.92845,152.42053l11.00602,-11.00602l16.38105,16.38105l-26.10729,-1.79168c-1.15179,-0.12798 -1.91965,-1.15179 -1.79168,-2.30358c0,-0.51191 0.12798,-1.02382 0.51191,-1.27977z" fill="#ffffff"></path><path d="M29.31552,158.94735l-26.23527,-1.79168c-1.91965,-0.12798 -3.19942,-1.79168 -3.07145,-3.71133c0.12798,-0.76786 0.38393,-1.53572 1.02382,-2.04763l11.00602,-11.00602c0.51191,-0.51191 1.27977,-0.51191 1.79168,0l16.38105,16.38105c0.38393,0.38393 0.51191,0.89584 0.25595,1.40775c-0.25595,0.51191 -0.63988,0.76786 -1.15179,0.76786zM12.93447,143.20619l-10.11018,10.11018c-0.38393,0.25595 -0.38393,0.89584 0,1.15179c0.12798,0.12798 0.25595,0.25595 0.51191,0.25595l22.65192,1.53572z" fill="#ffdb7e"></path><path d="M54.27102,101.35773c-0.76786,0 -1.27977,-0.63988 -1.27977,-1.27977c0,-0.38393 0.12798,-0.63988 0.38393,-0.89584l12.41376,-12.41376c0.51191,-0.51191 1.27977,-0.51191 1.79168,0l8.06255,8.06255c0.38393,0.38393 0.51191,0.76786 0.38393,1.27977c-0.12798,0.38393 -0.51191,0.76786 -1.02382,0.89584l-20.47631,4.35122c-0.12798,0 -0.25595,0 -0.25595,0zM66.68478,89.45588l-8.44648,8.44648l13.82151,-2.94347z" fill="#ffdb7e"></path><path d="M74.61935,95.72675l-14.07746,3.07145c-1.02382,0.25595 -2.04763,-0.38393 -2.30358,-1.40775c-0.12798,-0.63988 0,-1.27977 0.51191,-1.79168l7.80659,-7.80659z" fill="#ffffff"></path><path d="M60.28594,100.07796c-1.79168,0 -3.19942,-1.40775 -3.19942,-3.19942c0,-0.89584 0.38393,-1.6637 0.89584,-2.30358l7.80659,-7.80659c0.51191,-0.51191 1.27977,-0.51191 1.79168,0l8.06255,8.06255c0.38393,0.38393 0.51191,0.76786 0.38393,1.27977c-0.12798,0.38393 -0.51191,0.76786 -1.02382,0.89584l-14.07746,3.07145c-0.25595,0 -0.51191,0 -0.63988,0zM66.68478,89.45588l-6.91075,6.91075c-0.25595,0.25595 -0.25595,0.51191 -0.12798,0.76786c0.12798,0.25595 0.38393,0.38393 0.76786,0.38393l11.77388,-2.55954z" fill="#ffdb7e"></path><path d="M153.06921,19.70845c-0.25595,-0.76786 -1.15179,-1.15179 -1.91965,-0.89584c-0.76786,0.25595 -1.15179,1.15179 -0.89584,1.91965c0,0.12798 0.12798,0.25595 0.12798,0.38393c0.76786,1.53572 0.51191,3.45538 -0.51191,4.86312c-0.51191,0.63988 -0.38393,1.53572 0.12798,2.04763c0.63988,0.51191 1.53572,0.38393 2.04763,-0.25595c1.91965,-2.43156 2.30358,-5.50301 1.02381,-8.06255z" fill="#ffdb7e"></path></g></g></g></g></svg>